<?xml version="1.0" encoding="UTF-8" standalone="no"?>
<svg
   width="200"
   height="200"
   version="1.1"
   id="svg2"
   sodipodi:docname="logo.svg"
   inkscape:version="1.3.2 (091e20e, 2023-11-25, custom)"
   xmlns:inkscape="http://www.inkscape.org/namespaces/inkscape"
   xmlns:sodipodi="http://sodipodi.sourceforge.net/DTD/sodipodi-0.dtd"
   xmlns="http://www.w3.org/2000/svg"
   xmlns:svg="http://www.w3.org/2000/svg">
  <defs
     id="defs1" />
  <sodipodi:namedview
     id="namedview2"
     pagecolor="#505050"
     bordercolor="#eeeeee"
     borderopacity="1"
     inkscape:showpageshadow="0"
     inkscape:pageopacity="0"
     inkscape:pagecheckerboard="0"
     inkscape:deskcolor="#505050"
     inkscape:zoom="256"
     inkscape:cx="75.03125"
     inkscape:cy="100.06445"
     inkscape:window-width="1920"
     inkscape:window-height="991"
     inkscape:window-x="-9"
     inkscape:window-y="-9"
     inkscape:window-maximized="1"
     inkscape:current-layer="layer2"
     showgrid="true">
    <inkscape:grid
       id="grid3"
       units="px"
       originx="0"
       originy="0"
       spacingx="1"
       spacingy="1"
       empcolor="#0099e5"
       empopacity="0.30196078"
       color="#0099e5"
       opacity="0.14901961"
       empspacing="5"
       dotted="false"
       gridanglex="30"
       gridanglez="30"
       visible="true" />
  </sodipodi:namedview>
  <!--    <path d="M125,100 a60,60 1 1,0 -100,0"/>-->
  <g
     inkscape:groupmode="layer"
     id="layer1"
     inkscape:label="BG">
    <path
       id="path3"
       d="M 25 100 A 60 60 0 0 0 74.705078 126.73242 L 74.705078 100 L 25 100 z "
       style="fill:#ffffff;fill-opacity:1" />
    <path
       id="path_sky"
       d="M 74.763672 6.8710938 A 60 60 0 0 0 25 100 L 125 100 A 60 60 0 0 0 125.04102 99.910156 L 74.763672 99.910156 L 74.763672 6.8710938 z "
       fill="#36C3FF" />
    <path
       id="path2"
       d="M 74.705078 100 L 74.705078 126.73242 A 60 60 0 0 0 125 100 L 74.705078 100 z "
       style="fill:#440000;fill-opacity:1" />
    <path
       id="path5"
       d="M 74.707464,6.9585508 V 99.997613 H 124.98482 A 60,60 0 0 0 74.707464,6.9585508 Z"
       fill="E20400"
       style="fill:#b93a00;fill-opacity:1" />
  </g>
  <g
     inkscape:groupmode="layer"
     id="layer2"
     inkscape:label="Tree">
    <rect
       style="fill:#803300;fill-opacity:1"
       id="rect3"
       width="6.8047338"
       height="11.242603"
       x="67.903282"
       y="88.750389"
       inkscape:label="rect3" />
    <polygon
       points="74.70,88.76 45.06,88.76 74.72,70.45"
       style="fill:lime;"
       id="polygon1" />
    <polygon
       points="74.7,70.45 45.06,70.45 74.72,52.45 "
       style="fill:#00ff00"
       id="polygon2"
       transform="matrix(0.77947614,0,0,1,16.477543,4)" />
    <polygon
       points="74.7,52.45 45.06,52.45 74.72,34.45 "
       style="fill:#00ff00"
       id="polygon3"
       transform="matrix(0.4953273,0,0,0.77411866,37.709144,19.847476)" />
    <polygon
       points="45.06,52.45 74.72,34.45 74.7,52.45 "
       style="fill:#00ff00"
       id="polygon3-3"
       transform="matrix(0.28672365,0,0,0.73974541,53.28994,10.975033)" />
    <rect
       style="fill:#3b1800;fill-opacity:1"
       id="rect4"
       width="6.8047338"
       height="11.242603"
       x="74.709183"
       y="88.772491"
       inkscape:label="rect3" />
    <polygon points="74.71,40.64 82.45,88.76 74.71,88.76" style="fill:white;"/>
    <polygon points="74.71,88.76 82.45,88.76 82.45,93.19" style="fill:white;"/>
  </g>
</svg>
