<?xml version="1.0" encoding="UTF-8"?>
<svg id="Feuille" xmlns="http://www.w3.org/2000/svg" viewBox="0 0 191.89 158.69">
  <defs>
    <style>
      .cls-1 {
        fill: #f6a344;
        stroke-width: .5px;
      }

      .cls-1, .cls-2 {
        stroke: #e94c46;
        stroke-miterlimit: 10;
      }

      .cls-3 {
        fill: #602b2b;
      }

      .cls-3, .cls-4 {
        stroke-width: 0px;
      }

      .cls-4 {
        fill: #f8aa12;
      }

      .cls-2 {
        fill: #d4840d;
        stroke-width: .25px;
      }
    </style>
  </defs>
  <g id="Calque_5" data-name="Calque 5">
    <g>
      <path class="cls-3" d="m79.69,103.01s3.13-1.83,8.54-2.98c6.2-1.32,15.09-1.97,20.67-1.91,0,0,1.21-15.11,1.01-15.92,0,0,1.3-13.66-10.57-20.75-12.02-7.9-16.03-11.02-19.42-14.1,0,0-7.36-8.48-7.4-17.84-.04-9.36.42-23.74.42-23.74l.98,19.79s.9,13.81,7.28,18.9c6.39,5.09,4.48,3.84,7.8,5.87,3.32,2.02,10.81,5.98,10.81,5.98-.8-1.64-1.81-4.17-2.2-7.37-.46-3.87.23-6.72,1.88-13.15,3.23-12.59,3.16-11.8,3.44-13.41,1.57-9.06.5-15.97.69-15.98.17,0,1.08,5.15.69,11.96-.3,5.29-1.32,10.46-2.89,18.38-.76,3.83-1.05,4.93-1.01,7.05.08,4.43,1.51,8.29,2.54,11.07.76,2.06,1.52,3.7,2.05,4.77,0,0,6.62,5.72,6.79,7.25,0,0,2.95-13.87,7.11-17.89,0,0,5.03-7.75,5.09-9.85s2.14-5.55,1.62-12.31c0,0,.38,9.54-.17,11.82-.55,2.28-3.73,8.9-5.06,11.36-1.33,2.46-2.43,4.88-2.43,4.88,0,0,1.82-2.37,8.41-3.15,0,0,6.59-.29,7.95-1.18,0,0,5.06-2.17,4.91-3.5,0,0-2.05,3.46-5.21,4.23,0,0-3.69,1-6.85,1.43-3.16.42-6.57,1.75-8.48,3.89s-3.28,6.2-3.66,10.64c-.39,4.43-.48,5.22-.48,5.22,0,0,1.93,6.42,1.87,10-.06,3.58,0,15.55,0,15.55,0,0,23.47.77,29.15,4.86,0,0-36.72-4.55-66.14.14"/>
      <path class="cls-4" d="m191.89,122.44c-59.8-50.25-191.89,0-191.89,0h191.89Z"/>
    </g>
    <g>
      <path class="cls-2" d="m45.33,130.42l-.32.13-.24-.07-.69-.1-.96-.12h-1.11l-1.34.08-1.44.2-1.29.03-1.14.23-.92.17-1.01.32-.76.2-.72.17-.24.29-.45.27-.59.32-.69.2-.92.13-.92.03-.82-.27-.49-.32-.49-.34-.44-.39-.07-.47.07-.55.3-.42.29-.27.44-.13.69-.35.66-.17,1.04-.1h1.13l1.44.1h1.44l1.55-.1,1.28-.03.55-.1.72.07.79-.13.86.17.79-.03.72.07,1.38.17h.66l1.11.55.17.3v.25Zm-13.07-3.65l-.22.27-.27-.27.17-.35.32.1v.25Zm4.23,6.43l-.18.3-.13.69v.62l-.1.79v.69l-.07.55-.13.47.13.39-.23.44-.05.59v.52l-.13.66-.07.76-.07.59.07.69-.13.79-.03.76v.62l.03.79.07.86-.07.82v.89l-.1.77.07.72v.79l.03.72-.03.72-.24.24-.07-.17-.08-.32.08-.54.03-.66-.15-.39.03-.66-.1-.37-.1-.52v-1.71l-.13-.55v-.62l-.07-.65v-.79l-.07-.66v-.69l.07-.69v-.92l-.07-.94v-1.48l-.03-.54.13-.52v-.65l-.03-.82-.29-.79-.17-.72-.27-.55-.07-.55v-.47l.24-.39.42-.42.54-.07.42.15.49.4.37.45.25.59Z"/>
      <path class="cls-2" d="m51.56,146.28l-.07.59-.12.54-.24.42-.17.45-.29.47-.4.29-.27.4-.55.29-.55.2-.65.07-.66.1-.62.07-.66-.13-.54-.1-.52-.2-.42-.18-.44-.4-.39-.45-.4-.23-.29-.45-.2-.47-.24-.45-.03-.52-.05-.65.08-.47.17-.65v-.66l.2-.65.35-1.04.37-.34.07-.39.35-.27.44-.3.42-.25.62-.13.4.07.35.2.2.39.07.34-.03.45-.27.35-.32.4-.2.45-.03.44-.34.32-.18.62-.17.4-.03.62v.52l.1.55.24.44.29.35.37.27.35.35.44.13.55.03.07.1.62-.03.55-.1.62-.42.37-.37.29-.55.1-.52v-.69l-.17-.4-.29-.52-.3-.42-.39-.37-.4-.32-.32-.23-.23-.2-.07-.35.13-.24h.32l.3.2.42.17.27.22.55.37.37.29.25.37.3.45.27.4.15.39.1.62Zm-3.44-3.75l-.2.07-.22-.18.13-.13.22.03.07.22Z"/>
      <path class="cls-2" d="m64.04,149.51l-.17.29-.22.13-.27.03-.24-.07-.15-.17-.27-.32-.33-.27-.25-.25-.44-.96-.07-.4-.12-.35-.1-.27h-.13l-.17.2-.2.34-.12.32-.1.34-.17.35-.2.3-.25.29-.27.37-.45.25-.33.17-.66.17-.52.03-.4-.07-.45-.24-.55-.15-.37-.3-.45-.24-.27-.29-.39-.34-.13-.52-.2-.55-.13-.54-.15-.66-.13-.39.1-.52-.17-.62-.03-.34-.03-.52-.07-.44-.07-.32.03-.44.1-.35.34-.37.45-.18.35-.03.44.07.42.22.3.24.29.42.17.37.13.52-.07.37-.24.32-.22.37-.03.49-.17.55v.47l.03.65.17.69.25.32.27.44.49.35.47.24.59.17.45-.17.44-.24.35-.35.34-.54.25-.45.2-.45.17-.47.13-.62.08-.72-.15-.62-.1-.55-.1-.24.07-.45-.03-.44.07-.35.1-.3.07-.45.18-.27.2-.13.3.1.15.27.03.24.13.35-.03.34v.52l-.13.52v.24l-.15.2.08.42.07.49.17.44.03.69.17.45.13.59.07.47.19.52.2.39.27.34.29.3.76.35.1.24Zm-5.78-4.37l-.07.79-.49.49-.4-.39-.29-.57.03-.62-.17-.35.2-.2.35.03.34.2.49.62Z"/>
      <path class="cls-2" d="m73.98,140.97l-.18.32-.2.27-.13.49.03.69v.76l.1.79v1.02l.13.97-.07.86.07.99-.07.79.07.77-.13.47.07.62-.07.86-.1.76-.07.94-.17.62-.18.57-.3.79-.39.91-.37.65-.76.76-.45.34-.72.29-.72.24-.96.07-.86-.07-.72-.07-.65-.29-.52-.2-.45-.42-.3-.37-.17-.49v-.4l.26-.07.23.17.25.24.3.42.42.27.47.35.59.07.83.24.88-.1.72-.17.54-.29.59-.47.39-.55.4-.66.25-.62.34-.76.1-.79.1-.96.07-.94v-.62l-.07-.6-.03-.42.03-.92-.69.44-.82.25-.96.13-.76-.13-.79-.22-.82-.47-.49-.35-.55-.3-.34-.55-.32-.52.1-.62-.17-.37-.27-.72v-.24l.03-1.04.24-.86.2-.62.59-.45.39-.5.1-.65.49-.32.3-.2.2-.34,1.38-.25.89.13.55.08.49.17.34.24.32.2.34-.03.32-.27.13-.3.45-.08.4.12.24.27.08.3Zm-6.58,9.81l-.03.32-.27.2h-.52l-.24-.35.49-.17.27-.24.3.24Zm4.89-3.31l-.1-.57v-.62l.03-.65-.07-1.28-.1-.72-.17-.45-.35-.34-.44.1-.49.29-.49.3-.52.49-.73.3-.83,1.28-.03.69-.1.55.24.47.42.39.45.66.79.44.62.13.79-.03.79-.13.2-.62.07-.66Z"/>
      <path class="cls-2" d="m84.85,149.99l-.03.24-.23.25h-.25l-.27-.29-.13-.44-.22-.35-.13-.49-.13-.13-.2.1-.29.18-.3.37-.49.29-.3.3-.52.27-.59.22-.5.17-.45.13-.33.13-.35-.1-.49-.07-.57-.24-.52-.32-.32-.4-.24-.45-.03-.72v-.49l.1-.54.32-.55.3-.52.42-.37.44-.32.59-.1.52-.07.59-.13.5-.32.65-.34.32-.13.34-.1.13-.35-.27-.49-.32-.44-.67-.62-.69-.2-.56-.03-.2.03h-.35l-.42.2-.37.24-.45.07h-.5l-.59.15h-.52l-.42-.22-.3-.3-.03-.42.1-.37.35-.42.37-.49.45-.37.5-.27.56-.45.52-.24.96-.18.82-.07.59.17.49.25.52.17.59.39.3.3.3.49.22.62.17.61.23.81.22.6.03.52-.03.65.17.76.1.79.3,1.38.19.52.17.47.13.59.03.49Zm-2.34-3.58l-.13-.2-.49-.13-.42.03-.37.17-.42.13-.44.24-.42.07-.37.18-.32.24-.2.3-.25.39-.07.34-.13.32v.4l.17.35.45.13h.49l.54-.13.25-.27.34-.08.79-.54.39-.25.27-.44.29-.35.03-.47.03-.42Zm.89,3.48l-.13.1-.28-.1.08-.2.2-.12.13.32Zm1.34-2.89l-.2.13-.18-.07v-.2l.32-.15.07.29Z"/>
      <path class="cls-2" d="m95.74,146.28l-.07.59-.12.54-.23.42-.17.45-.29.47-.4.29-.27.4-.56.29-.55.2-.65.07-.65.1-.62.07-.65-.13-.54-.1-.52-.2-.42-.18-.44-.4-.39-.45-.4-.23-.29-.45-.2-.47-.23-.45-.03-.52-.05-.65.08-.47.17-.65v-.66l.2-.65.35-1.04.37-.34.07-.39.35-.27.44-.3.42-.25.62-.13.4.07.35.2.2.39.07.34-.03.45-.27.35-.32.4-.2.45-.03.44-.34.32-.18.62-.17.4-.03.62v.52l.1.55.24.44.29.35.37.27.35.35.44.13.56.03.07.1.62-.03.55-.1.62-.42.37-.37.29-.55.1-.52v-.69l-.17-.4-.29-.52-.3-.42-.39-.37-.4-.32-.32-.23-.24-.2-.07-.35.13-.24h.32l.3.2.42.17.27.22.55.37.37.29.25.37.3.45.27.4.15.39.1.62Zm-3.44-3.75l-.2.07-.22-.18.13-.13.22.03.07.22Z"/>
      <path class="cls-2" d="m108.22,149.51l-.17.29-.22.13-.27.03-.24-.07-.15-.17-.27-.32-.34-.27-.25-.25-.44-.96-.07-.4-.12-.35-.1-.27h-.13l-.17.2-.2.34-.12.32-.1.34-.17.35-.2.3-.25.29-.27.37-.45.25-.34.17-.65.17-.52.03-.4-.07-.45-.24-.55-.15-.37-.3-.45-.24-.27-.29-.39-.34-.13-.52-.2-.55-.13-.54-.15-.66-.13-.39.1-.52-.17-.62-.03-.34-.03-.52-.07-.44-.07-.32.03-.44.1-.35.34-.37.45-.18.35-.03.44.07.42.22.3.24.29.42.17.37.13.52-.07.37-.24.32-.22.37-.03.49-.17.55v.47l.03.65.17.69.25.32.27.44.49.35.47.24.59.17.45-.17.44-.24.35-.35.34-.54.25-.45.2-.45.17-.47.13-.62.08-.72-.15-.62-.1-.55-.1-.24.07-.45-.03-.44.07-.35.1-.3.07-.45.18-.27.2-.13.3.1.15.27.03.24.13.35-.03.34v.52l-.13.52v.24l-.15.2.08.42.07.49.17.44.03.69.17.45.13.59.07.47.19.52.2.39.27.34.29.3.76.35.1.24Zm-5.78-4.37l-.07.79-.49.49-.4-.39-.29-.57.03-.62-.17-.35.2-.2.35.03.34.2.49.62Z"/>
      <path class="cls-2" d="m118.16,140.97l-.19.32-.2.27-.13.49.03.69v.76l.1.79v1.02l.13.97-.07.86.07.99-.07.79.07.77-.13.47.07.62-.07.86-.1.76-.07.94-.17.62-.19.57-.3.79-.39.91-.37.65-.76.76-.45.34-.72.29-.72.24-.96.07-.86-.07-.72-.07-.65-.29-.52-.2-.45-.42-.3-.37-.17-.49v-.4l.26-.07.23.17.25.24.3.42.42.27.47.35.59.07.83.24.88-.1.72-.17.54-.29.59-.47.39-.55.4-.66.25-.62.34-.76.1-.79.1-.96.07-.94v-.62l-.07-.6-.03-.42.03-.92-.69.44-.82.25-.96.13-.76-.13-.79-.22-.82-.47-.49-.35-.55-.3-.34-.55-.32-.52.1-.62-.17-.37-.27-.72v-.24l.03-1.04.24-.86.2-.62.59-.45.39-.5.1-.65.49-.32.3-.2.2-.34,1.38-.25.89.13.56.08.49.17.34.24.32.2.34-.03.32-.27.13-.3.45-.08.4.12.23.27.08.3Zm-6.58,9.81l-.03.32-.27.2h-.52l-.24-.35.49-.17.27-.24.3.24Zm4.89-3.31l-.1-.57v-.62l.03-.65-.07-1.28-.1-.72-.17-.45-.35-.34-.44.1-.49.29-.49.3-.52.49-.73.3-.83,1.28-.03.69-.1.55.24.47.42.39.46.66.79.44.62.13.79-.03.79-.13.2-.62.07-.66Z"/>
      <path class="cls-2" d="m141.41,151.86l-.1.5v.32l-.13.24-.22.17-.3-.1-.29-.44-.07-.49-.24-.23-.03-.62-.27-.91-.39-.61-.34-.72-.19-.62-.3-.91-.07-.72-.39-.54-.4-.35-.52.29-.49.3-1.41.3-.54-.07-.62-.03-1.21-.44-.79-.35-.07-.3-.62-.29-.13-.4-.29-.29-.24-.66-.1-.57-.03-.62-.03-.97.03-1.02.2-.86-.07-.49-.13-.82-.03-.96.07-.91.3-.69.45-.96.45-.79.4-.49.25-.47.67-.72.45-.62.49-.49.47-.52.49-.27.65.07.59-.27,1.13-.1.49-.39.89-.3.72.13.49.24.42.42.2.44.24.32.07.47-.03.25-.17.24-.45.35-.5.2h-.91l-.54-.17-.62-.18-.65.18-.86.44-.69.49-.76.52-.15.4-.5.35-.45.62-.52.76-.34.54-.3.84-.32.79-.1.89v.72l-.17.79-.19,1.02-.07.87.25,1.03.44.72.49.49.69.23.86.39.96.17.69-.1h.35l.27-.22.52-.57.39-.52v-1.14l.1-.72.1-.82.2-.76.24-.37-.1-.76.1-.32.19-.24.2-.25.27-.13.52.03.55.35.2.66.17.86.12.72.24.59.27.76v.89l.03.79-.13.82v.97l-.03.82v1.13l.03.94.24,1.02.08.99.07.49.17.32Z"/>
      <path class="cls-2" d="m151.18,142.15l-.23.07-.32-.03h-.3l-.45.07-.55.32-.27.37-.55.24-.24.29-.45.4-.2.42-.13.39v.5l-.13.39-.15.4-.13.45-.03.49v1.09l-.03.49-.13.49-.03.47-.07.52v.49l-.25.5-.3.29-.45.13-.3.07-.27-.07-.25-.27-.13-.32-.13-.34.03-.39-.03-.55v-.79l-.03-.37.03-.42.03-.55v-.47l.07-.55.03-.55-.03-.62v-.5l-.07-.42-.03-.39-.29-.47-.24-.39-.13-.4-.03-.45.07-.42.17-.3.29-.2.47-.17.52-.25.45.07.57.25.07.34.25.45v.69l.2.2.2.03.29-.07.34-.27.45-.29.52-.24.44-.25.52-.07.55-.13h.3l.42.13.13.25v.24Z"/>
      <path class="cls-2" d="m162.12,143.86l-.3.45-.49.27-.59.25-.72.23-.79.07-.72.17-.5.25-.59.2-.49.13-.79.03-.62-.07-.42.03-.37.13-.17.39.07.72.2.39.39.47.72.79.37.35.72.37.39.18.47.2h.55l.52-.13.44-.07.49-.18.49-.1h.3l.03.13-.17.18-.3.2-.52.27-.55.29-.52.2-.5.13-.76-.03-.76-.17-.62-.32-.72-.47-.65-.55-.45-.3-.34-.32-.29-.4-.2-.15-.42-1.02-.37-.89-.23-.72-.08-.55.05-.62.13-.65.13-.55.17-.37.17-.42.15-.2.3-.27.23-.03.42-.59.49-.42.5-.27.62-.1h.79l.66-.03.89.1.72.2,2,.99.52.32.49.44.27.35.17.59v.5Zm-3.19-.98l-.29-.31-.44-.22-.49-.2-.56-.07h-.54l-.49.14-.49.2-.44.32-.25.14-.27.31.1.22.24-.03.39.03h.65l.56.13h.57l.62-.03.55-.14.49-.14.07-.36Zm1.48,6.09l-.2.17-.19-.17.1-.22h.25l.03.22Z"/>
      <path class="cls-2" d="m173.88,143.86l-.3.45-.49.27-.59.25-.72.23-.79.07-.72.17-.5.25-.59.2-.49.13-.79.03-.62-.07-.42.03-.37.13-.17.39.07.72.2.39.39.47.72.79.37.35.72.37.39.18.47.2h.55l.52-.13.44-.07.49-.18.49-.1h.3l.03.13-.17.18-.3.2-.52.27-.55.29-.52.2-.5.13-.76-.03-.76-.17-.62-.32-.72-.47-.65-.55-.45-.3-.34-.32-.29-.4-.2-.15-.42-1.02-.37-.89-.23-.72-.08-.55.05-.62.13-.65.13-.55.17-.37.17-.42.15-.2.3-.27.23-.03.42-.59.49-.42.5-.27.62-.1h.79l.66-.03.89.1.72.2,2,.99.52.32.49.44.27.35.17.59v.5Zm-3.19-.98l-.29-.31-.44-.22-.49-.2-.56-.07h-.54l-.49.14-.49.2-.44.32-.25.14-.27.31.1.22.24-.03.39.03h.65l.56.13h.57l.62-.03.55-.14.49-.14.07-.36Zm1.48,6.09l-.2.17-.19-.17.1-.22h.25l.03.22Z"/>
      <path class="cls-2" d="m184.98,149.47l-.13.18-.17.13-.35-.03-.3-.29-.1-.3-.03-.45v-.37l-.13-.49-.03-.49v-.44l-.15-.45-.03-.52-.27-.82-.07-1.24-.29-.86-.4-.37-.49-.22-.2-.27-.35-.17-.54.17-.38.13-.33.39-.35.4-.43.62-.18.42-.1.37-.07.35-.27.37-.32.39-.13.55-.03.62v.6l-.07.76-.03.69v.62l.03.59.13.52.1.44.03.42-.17.2-.14.18-.32.07h-.3l-.2-.15-.17-.2-.19-.59-.1-.47-.14-.97v-.37l-.07-.42-.07-.55v-.64l-.07-.59v-.45l-.03-.45-.12-.5v-.62l-.03-.55v-2.13l-.13-.4-.2-.32-.13-.27-.13-.35-.05-.4.05-.32.17-.3.2-.2.39-.29.47-.03.49.03.37.24.35.25.37.37.18.25.13.4.37.18.35-.12.49-.07.47-.13.45-.13.59-.07.47-.07.49.17.24.27.22.49.17.34.07.49.17.32.25.4.17.55.03.49.03.54.1.52.03.52.13.47.03.45v.49l.07.47.19.49.07.49.27.37.13.39v.3Zm-1.55.49l-.13.2-.17.07-.13-.27.27-.27.17.27Z"/>
    </g>
    <path class="cls-1" d="m105.84,98.29s-1.95-1.13-.23-4.39c0,0-2.48,2.18-2.32,3.37s-1.86-.65-1.19-1.84c0,0-2.4,1.91-2.07,2.58,0,0-1.69-.52-.22-2.46,0,0-2.3,1.17-2.11,2.13,0,0-3.26,1.86.2,2.35s7.95-1.75,7.95-1.75Z"/>
    <path class="cls-1" d="m71.18,12.02s-1.7.19-1.78-2.31c-.08-2.49,2.01-1.46,1.68-4.5l.6,1.69s.58-2.85.14-5.36c0,0,2.12,3.79,2.18,5.38,0,0,1.8-2.74.75-5.32,0,0,2.41,3.12,1.85,5.24s1.74,5.88-5.42,5.17Z"/>
    <path class="cls-1" d="m104.25,12.78s-1.27-.08-2.39-2.31c-.45-.89-.79-2.13-.79-5.99l1.33,3.24s1.03-1.73.59-4.24c0,0,1.67,2.67,1.73,4.25,0,0,.75-.92-.21-4.54,0,0,1.76,2.39,1.6,4.96-.13,2.19-.03,5.02-1.86,4.62Z"/>
    <path class="cls-1" d="m124.37,33.86s-1.17.03-.58-2.42c.28-1.18.53-1.8.2-4.85l.88,2.16s.85-1.48.41-3.99c0,0,1.85,2.42,1.91,4,0,0,.75-1.96-.3-4.53,0,0,1.26,2.44,1.71,4.63s-1.36,5.51-4.23,5Z"/>
    <path class="cls-1" d="m136.83,50.98s-1.7.19-1.78-2.31,1.2-1.72.87-4.76l1.4,1.95s.85-1.27.42-3.78c0,0,1.84,2.21,1.9,3.8,0,0,.22-3.25-.83-5.82,0,0,2.67,4.53,2.1,6.64s-.74,4.57-4.09,4.27Z"/>
    <path class="cls-1" d="m87.64,49.49s1.99-.29,1.65-3.57c0,0,1.34,2.63.81,3.57s1.76.08,1.6-1.13c0,0,1.37,2.39.87,2.84,0,0,1.58.13,1-1.97,0,0,1.52,1.73,1.05,2.47,0,0,2.1,2.63-.95,1.89s-6.04-4.09-6.04-4.09Z"/>
  </g>
</svg>