<?xml version="1.0" encoding="UTF-8"?>
<svg id="Calque_2" data-name="Calque 2" xmlns="http://www.w3.org/2000/svg" viewBox="0 0 161.44 43.04">
  <defs>
    <style>
      .cls-1 {
        letter-spacing: -.08em;
      }

      .cls-2 {
        fill: #602b2b;
      }

      .cls-2, .cls-3, .cls-4, .cls-5 {
        stroke-width: 0px;
      }

      .cls-3 {
        fill: none;
      }

      .cls-4, .cls-6 {
        fill: #7dbb4c;
      }

      .cls-6 {
        font-family: TwCenMT-Regular, 'Tw Cen MT';
        font-size: 14.85px;
      }

      .cls-7 {
        letter-spacing: -.02em;
      }

      .cls-5 {
        fill: #6fb635;
      }
    </style>
  </defs>
  <g id="Calque_3" data-name="Calque 3">
    <g>
      <g>
        <g>
          <path class="cls-2" d="m25.79,36.75s1.01-.59,2.76-.96c2.01-.43,4.88-.64,6.69-.62,0,0,.39-4.89.33-5.15,0,0,.42-4.42-3.42-6.72-3.89-2.56-5.19-3.57-6.29-4.56,0,0-2.38-2.74-2.39-5.77-.01-3.03.14-7.68.14-7.68l.32,6.4s.29,4.47,2.36,6.12c2.07,1.65,1.45,1.24,2.53,1.9,1.08.65,3.5,1.94,3.5,1.94-.26-.53-.59-1.35-.71-2.39-.15-1.25.08-2.18.61-4.26,1.04-4.08,1.02-3.82,1.11-4.34.51-2.93.16-5.17.22-5.17.05,0,.35,1.67.22,3.87-.1,1.71-.43,3.39-.94,5.95-.25,1.24-.34,1.6-.33,2.28.03,1.43.49,2.68.82,3.58.25.67.49,1.2.66,1.54,0,0,2.14,1.85,2.2,2.35,0,0,.95-4.49,2.3-5.79,0,0,1.63-2.51,1.65-3.19s.69-1.8.52-3.98c0,0,.12,3.09-.06,3.83-.18.74-1.21,2.88-1.64,3.68-.43.8-.79,1.58-.79,1.58,0,0,.59-.77,2.72-1.02,0,0,2.13-.09,2.57-.38,0,0,1.64-.7,1.59-1.13,0,0-.66,1.12-1.69,1.37,0,0-1.19.32-2.22.46s-2.13.57-2.74,1.26-1.06,2.01-1.18,3.44-.16,1.69-.16,1.69c0,0,.62,2.08.6,3.24s0,5.03,0,5.03c0,0,7.6.25,9.43,1.57,0,0-11.89-1.47-21.41.05"/>
          <path class="cls-4" d="m62.11,43.04c-19.36-16.26-62.11,0-62.11,0h62.11Z"/>
          <path class="cls-5" d="m23,0s1.74,0,1.94,1.23c0,0,.07.79.02,1.05,0,0-.67-.3-.95-.98,0,0,.16.82.92,1.1,0,0-.87.08-1.18-.13s-.54-1.28-.56-1.59-.05-.42-.18-.69Z"/>
          <path class="cls-5" d="m33.04.27s.22,1.84-.55,2.52-1.17.8-2.22.77c0,0,.32-1.23,1.15-1.58,0,0-1.03.22-1.32,1.58,0,0-.64-1.37.22-2.11,0,0,.6-.48,1.41-.65,0,0,1.24-.42,1.32-.53Z"/>
          <path class="cls-5" d="m19.2,1.49s2.61-.01,2.91,1.74c0,0,.1,1.11.04,1.48,0,0-1.01-.42-1.43-1.39,0,0,.24,1.16,1.38,1.56,0,0-1.32.11-1.78-.18s-.81-1.82-.84-2.25-.07-.6-.27-.97Z"/>
          <path class="cls-5" d="m35.07,2.01s.18,1.3-.45,1.77-.95.56-1.8.54c0,0,.26-.87.93-1.11,0,0-.83.15-1.07,1.12,0,0-.52-.97.17-1.49,0,0,.49-.34,1.14-.46,0,0,1-.29,1.07-.38Z"/>
          <path class="cls-5" d="m38.86,5.38s-.02,1.13-.58,1.46-.84.36-1.52.25c0,0,.32-.71.89-.84,0,0-.69.03-1.01.82,0,0-.3-.89.33-1.25,0,0,.44-.23.98-.25,0,0,.85-.13.91-.19Z"/>
          <path class="cls-5" d="m36.94,8.55s-.01,1.18-.63,1.52-.91.38-1.66.25c0,0,.34-.74.97-.87,0,0-.75.03-1.09.85,0,0-.33-.93.35-1.3,0,0,.47-.24,1.07-.26,0,0,.92-.13.99-.2Z"/>
          <path class="cls-3" d="m28.78,23.03s-.12,1.26-.77,1.59-.96.34-1.71.15c0,0,.42-.77,1.06-.87,0,0-.77-.02-1.19.84,0,0-.25-1.02.47-1.37,0,0,.51-.22,1.11-.2,0,0,.95-.08,1.03-.14Z"/>
          <path class="cls-5" d="m37,4.09s.19,1.79-.74,2.4-1.41.71-2.63.64c0,0,.43-1.17,1.41-1.47,0,0-1.21.16-1.61,1.47,0,0-.7-1.36.33-2.03,0,0,.73-.44,1.68-.56,0,0,1.47-.34,1.57-.45Z"/>
          <path class="cls-5" d="m27.67,3.48s.57,1.1.16,1.73-.67.8-1.43,1.05c0,0-.04-.86.48-1.29,0,0-.7.4-.6,1.34,0,0-.77-.7-.31-1.38,0,0,.33-.46.88-.77,0,0,.8-.58.83-.67Z"/>
          <path class="cls-5" d="m27.05,7.58s.59,1.13.15,1.78-.73.84-1.54,1.11c0,0-.03-.88.53-1.34,0,0-.75.42-.66,1.39,0,0-.81-.71-.32-1.42,0,0,.36-.48.94-.81,0,0,.86-.61.9-.71Z"/>
          <path class="cls-5" d="m19.62,8.5s.99-.05,1.3.46.36.76.29,1.41c0,0-.63-.26-.77-.78,0,0,.06.64.77.89,0,0-.76.33-1.11-.23,0,0-.22-.39-.27-.9,0,0-.15-.78-.21-.84Z"/>
          <path class="cls-5" d="m22.17,6.62s1.92.27,1.95,1.62c0,0-.05.85-.14,1.12,0,0-.69-.43-.9-1.19,0,0,.05.9.84,1.32,0,0-.98-.06-1.29-.32s-.39-1.45-.37-1.78.01-.46-.09-.76Z"/>
          <path class="cls-5" d="m30.27,9.75s-.08,1.25-.8,1.57-1.05.33-1.88.13c0,0,.43-.76,1.14-.85,0,0-.85-.03-1.28.82,0,0-.32-1.02.47-1.36,0,0,.55-.22,1.22-.19,0,0,1.05-.06,1.13-.13Z"/>
          <path class="cls-5" d="m30.66,11.4s.62,1.42.09,2.17-.86.94-1.8,1.19c0,0,0-1.07.66-1.57,0,0-.87.44-.81,1.62,0,0-.89-.94-.3-1.75,0,0,.43-.54,1.11-.89,0,0,1.01-.65,1.05-.77Z"/>
          <path class="cls-5" d="m26.65,11.82s.55,1.36.2,2.03-.58.83-1.27,1c0,0-.06-1,.4-1.42,0,0-.62.36-.51,1.46,0,0-.72-.93-.33-1.65,0,0,.28-.48.77-.76,0,0,.71-.55.74-.65Z"/>
          <path class="cls-5" d="m32.34,7.34s.79,1.3.49,2.06-.54.97-1.27,1.29c0,0-.2-1.02.25-1.55,0,0-.64.49-.37,1.61,0,0-.92-.82-.58-1.65,0,0,.25-.55.75-.94,0,0,.71-.71.73-.82Z"/>
          <path class="cls-5" d="m29.35,5.75s.99-.05,1.3.46.36.76.29,1.41c0,0-.63-.26-.77-.78,0,0,.06.64.77.89,0,0-.76.33-1.11-.23,0,0-.22-.39-.27-.9,0,0-.15-.78-.21-.84Z"/>
          <path class="cls-5" d="m38.94,10.07s1.07-.04,1.42.48.39.78.32,1.43c0,0-.69-.27-.85-.8,0,0,.07.66.84.91,0,0-.83.33-1.2-.25,0,0-.24-.4-.29-.92,0,0-.17-.8-.23-.86Z"/>
          <path class="cls-5" d="m34.73,11.4s.13,1.3-.53,1.76-1,.52-1.88.47c0,0,.3-.86,1.01-1.08,0,0-.87.12-1.15,1.07,0,0-.5-.99.24-1.48,0,0,.52-.32,1.2-.41,0,0,1.05-.25,1.12-.33Z"/>
          <path class="cls-5" d="m18.98,14.24s1.92.27,1.94,1.65c0,0-.05.87-.14,1.15,0,0-.69-.43-.89-1.22,0,0,.04.92.84,1.35,0,0-.98-.06-1.29-.33s-.39-1.48-.37-1.82.02-.47-.09-.78Z"/>
          <path class="cls-5" d="m22.56,16.83s1.78-.77,2.57.51c0,0,.44.84.52,1.15,0,0-.83-.04-1.44-.67,0,0,.55.84,1.46.82,0,0-.86.47-1.27.38s-1.16-1.18-1.33-1.51-.25-.45-.51-.68Z"/>
          <path class="cls-5" d="m23.14,20.37s1.71.24,1.72,1.57c0,0-.06.84-.14,1.1,0,0-.61-.41-.78-1.16,0,0,.03.88.73,1.29,0,0-.87-.05-1.14-.3s-.33-1.42-.31-1.75.02-.45-.07-.75Z"/>
          <path class="cls-5" d="m33.17,21.98s.17,1.67-.67,2.26-1.27.67-2.37.61c0,0,.38-1.1,1.27-1.38,0,0-1.09.15-1.45,1.38,0,0-.63-1.27.3-1.9,0,0,.65-.41,1.51-.53,0,0,1.32-.32,1.41-.43Z"/>
          <path class="cls-5" d="m28.63,23.54s-.25,1.46-1.41,1.43c0,0-.73-.07-.96-.15,0,0,.37-.51,1.03-.64,0,0-.77,0-1.14.59,0,0,.06-.75.29-.97s1.25-.24,1.53-.21.39.03.65-.04Z"/>
          <path class="cls-5" d="m29.61,15.34s-.47,1.44-1.33,1.65-1.22.14-2.06-.28c0,0,.69-.78,1.48-.73,0,0-.9-.23-1.62.66,0,0-.03-1.26.91-1.47,0,0,.66-.12,1.37.06,0,0,1.14.17,1.25.11Z"/>
          <path class="cls-5" d="m34.45,15.51s2.28.64,2.04,2.48c0,0-.24,1.15-.4,1.51,0,0-.75-.68-.84-1.76,0,0-.13,1.23.75,1.92,0,0-1.18-.22-1.5-.62s-.18-2.04-.09-2.48.11-.62.04-1.05Z"/>
          <path class="cls-5" d="m35.01,12.99s2.05.29,2.08,1.74c0,0-.05.91-.15,1.21,0,0-.74-.46-.96-1.29,0,0,.05.97.9,1.43,0,0-1.05-.06-1.38-.35s-.42-1.57-.4-1.92.02-.49-.1-.82Z"/>
          <path class="cls-5" d="m38.34,10.89s1.33,1.48,1.18,2.49-.37,1.33-1.16,1.87c0,0-.54-1.25-.15-2,0,0-.63.74.02,2.1,0,0-1.35-.85-1.17-1.95,0,0,.14-.75.64-1.33,0,0,.66-1.03.64-1.18Z"/>
          <path class="cls-5" d="m32.15,17.41s.11.93-.41,1.25-.79.37-1.48.33c0,0,.24-.61.79-.77,0,0-.68.08-.9.76,0,0-.39-.71.18-1.06,0,0,.41-.23.94-.29,0,0,.82-.18.88-.23Z"/>
          <path class="cls-5" d="m37.33,17.77s1.25-.68,1.97-.27.92.7,1.22,1.52c0,0-.98.09-1.48-.46,0,0,.47.74,1.53.59,0,0-.79.88-1.57.42,0,0-.53-.34-.89-.92,0,0-.67-.85-.78-.88Z"/>
          <path class="cls-5" d="m39.31,25.05s-.28,1.6-1.4,1.59c0,0-.71-.06-.93-.15,0,0,.38-.57,1.02-.72,0,0-.75.02-1.13.67,0,0,.08-.82.31-1.07s1.22-.29,1.49-.26.38.02.64-.06Z"/>
          <path class="cls-5" d="m48.15,11.96s-.47,1.68-1.4,1.98-1.34.25-2.26-.16c0,0,.73-.95,1.6-.94,0,0-1-.2-1.75.88,0,0-.08-1.43.95-1.75,0,0,.71-.19,1.5-.04,0,0,1.26.1,1.37.03Z"/>
          <path class="cls-5" d="m44.53,10.02s.01,1.66-.76,2.18-1.15.59-2.1.46c0,0,.42-1.06,1.21-1.29,0,0-.96.09-1.37,1.27,0,0-.45-1.29.41-1.85,0,0,.6-.37,1.35-.43,0,0,1.17-.24,1.26-.34Z"/>
          <path class="cls-5" d="m43.83,13.38s-.05,1.15-.74,1.44-1.02.3-1.83.12c0,0,.4-.7,1.09-.78,0,0-.83-.03-1.23.75,0,0-.34-.93.43-1.25,0,0,.53-.2,1.19-.17,0,0,1.02-.06,1.1-.12Z"/>
          <path class="cls-5" d="m47.1,14.55s.9.94.68,1.69-.44,1.01-1.14,1.5c0,0-.3-.85.1-1.45,0,0-.59.61-.21,1.53,0,0-.99-.48-.73-1.3,0,0,.2-.56.66-1.04,0,0,.64-.83.64-.93Z"/>
          <path class="cls-5" d="m43.48,16.98s.6.96.31,1.55-.51.77-1.15,1.05c0,0-.12-.77.29-1.2,0,0-.57.41-.4,1.25,0,0-.74-.58-.41-1.23,0,0,.24-.44.69-.76,0,0,.65-.58.67-.67Z"/>
          <path class="cls-5" d="m46.47,24.25s.1,1.85-.55,2.51-.98.76-1.83.7c0,0,.31-1.22.99-1.55,0,0-.84.18-1.13,1.55,0,0-.46-1.4.26-2.11,0,0,.51-.46,1.17-.61,0,0,1.02-.38,1.09-.49Z"/>
          <path class="cls-5" d="m32.39,28.32s-.27,2.09-1.55,2.17c0,0-.81-.03-1.07-.11,0,0,.41-.77,1.14-1.01,0,0-.86.08-1.27.96,0,0,.06-1.06.32-1.41s1.39-.48,1.7-.46.43,0,.73-.13Z"/>
          <path class="cls-5" d="m32.75,29.66s1.19-1.5,2.35-.86c0,0,.69.46.88.67,0,0-.71.38-1.46.18,0,0,.79.4,1.54-.06,0,0-.54.8-.92.94s-1.43-.38-1.7-.56-.38-.24-.69-.3Z"/>
          <path class="cls-5" d="m40,29.02s1.86.69,1.6,2.02c0,0-.23.82-.38,1.06,0,0-.6-.57-.64-1.37,0,0-.14.89.56,1.48,0,0-.96-.28-1.22-.61s-.09-1.51,0-1.82.11-.44.07-.77Z"/>
          <path class="cls-5" d="m42.1,29.96s1.48-.84,2.26.14c0,0,.44.66.53.9,0,0-.72.06-1.29-.4,0,0,.54.64,1.32.53,0,0-.71.49-1.07.46s-1.09-.86-1.26-1.12-.25-.35-.49-.51Z"/>
          <path class="cls-3" d="m19.61,8.51s1.38,0,1.54.97c0,0,.05.62.02.83,0,0-.53-.24-.75-.77,0,0,.13.65.73.87,0,0-.69.06-.94-.1s-.43-1.01-.45-1.25-.04-.33-.14-.54Z"/>
        </g>
        <g>
          <path class="cls-2" d="m25.79,36.75s1.01-.59,2.76-.96c2.01-.43,4.88-.64,6.69-.62,0,0,.39-4.89.33-5.15,0,0,.42-4.42-3.42-6.72-3.89-2.56-5.19-3.57-6.29-4.56,0,0-2.38-2.74-2.39-5.77-.01-3.03.14-7.68.14-7.68l.32,6.4s.29,4.47,2.36,6.12c2.07,1.65,1.45,1.24,2.53,1.9,1.08.65,3.5,1.94,3.5,1.94-.26-.53-.59-1.35-.71-2.39-.15-1.25.08-2.18.61-4.26,1.04-4.08,1.02-3.82,1.11-4.34.51-2.93.16-5.17.22-5.17.05,0,.35,1.67.22,3.87-.1,1.71-.43,3.39-.94,5.95-.25,1.24-.34,1.6-.33,2.28.03,1.43.49,2.68.82,3.58.25.67.49,1.2.66,1.54,0,0,2.14,1.85,2.2,2.35,0,0,.95-4.49,2.3-5.79,0,0,1.63-2.51,1.65-3.19s.69-1.8.52-3.98c0,0,.12,3.09-.06,3.83-.18.74-1.21,2.88-1.64,3.68-.43.8-.79,1.58-.79,1.58,0,0,.59-.77,2.72-1.02,0,0,2.13-.09,2.57-.38,0,0,1.64-.7,1.59-1.13,0,0-.66,1.12-1.69,1.37,0,0-1.19.32-2.22.46s-2.13.57-2.74,1.26-1.06,2.01-1.18,3.44-.16,1.69-.16,1.69c0,0,.62,2.08.6,3.24s0,5.03,0,5.03c0,0,7.6.25,9.43,1.57,0,0-11.89-1.47-21.41.05"/>
          <path class="cls-4" d="m62.11,43.04c-19.36-16.26-62.11,0-62.11,0h62.11Z"/>
          <path class="cls-5" d="m23,0s1.74,0,1.94,1.23c0,0,.07.79.02,1.05,0,0-.67-.3-.95-.98,0,0,.16.82.92,1.1,0,0-.87.08-1.18-.13s-.54-1.28-.56-1.59-.05-.42-.18-.69Z"/>
          <path class="cls-5" d="m33.04.27s.22,1.84-.55,2.52-1.17.8-2.22.77c0,0,.32-1.23,1.15-1.58,0,0-1.03.22-1.32,1.58,0,0-.64-1.37.22-2.11,0,0,.6-.48,1.41-.65,0,0,1.24-.42,1.32-.53Z"/>
          <path class="cls-5" d="m19.2,1.49s2.61-.01,2.91,1.74c0,0,.1,1.11.04,1.48,0,0-1.01-.42-1.43-1.39,0,0,.24,1.16,1.38,1.56,0,0-1.32.11-1.78-.18s-.81-1.82-.84-2.25-.07-.6-.27-.97Z"/>
          <path class="cls-5" d="m35.07,2.01s.18,1.3-.45,1.77-.95.56-1.8.54c0,0,.26-.87.93-1.11,0,0-.83.15-1.07,1.12,0,0-.52-.97.17-1.49,0,0,.49-.34,1.14-.46,0,0,1-.29,1.07-.38Z"/>
          <path class="cls-5" d="m38.86,5.38s-.02,1.13-.58,1.46-.84.36-1.52.25c0,0,.32-.71.89-.84,0,0-.69.03-1.01.82,0,0-.3-.89.33-1.25,0,0,.44-.23.98-.25,0,0,.85-.13.91-.19Z"/>
          <path class="cls-5" d="m36.94,8.55s-.01,1.18-.63,1.52-.91.38-1.66.25c0,0,.34-.74.97-.87,0,0-.75.03-1.09.85,0,0-.33-.93.35-1.3,0,0,.47-.24,1.07-.26,0,0,.92-.13.99-.2Z"/>
          <path class="cls-3" d="m28.78,23.03s-.12,1.26-.77,1.59-.96.34-1.71.15c0,0,.42-.77,1.06-.87,0,0-.77-.02-1.19.84,0,0-.25-1.02.47-1.37,0,0,.51-.22,1.11-.2,0,0,.95-.08,1.03-.14Z"/>
          <path class="cls-5" d="m37,4.09s.19,1.79-.74,2.4-1.41.71-2.63.64c0,0,.43-1.17,1.41-1.47,0,0-1.21.16-1.61,1.47,0,0-.7-1.36.33-2.03,0,0,.73-.44,1.68-.56,0,0,1.47-.34,1.57-.45Z"/>
          <path class="cls-5" d="m27.67,3.48s.57,1.1.16,1.73-.67.8-1.43,1.05c0,0-.04-.86.48-1.29,0,0-.7.4-.6,1.34,0,0-.77-.7-.31-1.38,0,0,.33-.46.88-.77,0,0,.8-.58.83-.67Z"/>
          <path class="cls-5" d="m27.05,7.58s.59,1.13.15,1.78-.73.84-1.54,1.11c0,0-.03-.88.53-1.34,0,0-.75.42-.66,1.39,0,0-.81-.71-.32-1.42,0,0,.36-.48.94-.81,0,0,.86-.61.9-.71Z"/>
          <path class="cls-5" d="m19.62,8.5s.99-.05,1.3.46.36.76.29,1.41c0,0-.63-.26-.77-.78,0,0,.06.64.77.89,0,0-.76.33-1.11-.23,0,0-.22-.39-.27-.9,0,0-.15-.78-.21-.84Z"/>
          <path class="cls-5" d="m22.17,6.62s1.92.27,1.95,1.62c0,0-.05.85-.14,1.12,0,0-.69-.43-.9-1.19,0,0,.05.9.84,1.32,0,0-.98-.06-1.29-.32s-.39-1.45-.37-1.78.01-.46-.09-.76Z"/>
          <path class="cls-5" d="m30.27,9.75s-.08,1.25-.8,1.57-1.05.33-1.88.13c0,0,.43-.76,1.14-.85,0,0-.85-.03-1.28.82,0,0-.32-1.02.47-1.36,0,0,.55-.22,1.22-.19,0,0,1.05-.06,1.13-.13Z"/>
          <path class="cls-5" d="m30.66,11.4s.62,1.42.09,2.17-.86.94-1.8,1.19c0,0,0-1.07.66-1.57,0,0-.87.44-.81,1.62,0,0-.89-.94-.3-1.75,0,0,.43-.54,1.11-.89,0,0,1.01-.65,1.05-.77Z"/>
          <path class="cls-5" d="m26.65,11.82s.55,1.36.2,2.03-.58.83-1.27,1c0,0-.06-1,.4-1.42,0,0-.62.36-.51,1.46,0,0-.72-.93-.33-1.65,0,0,.28-.48.77-.76,0,0,.71-.55.74-.65Z"/>
          <path class="cls-5" d="m32.34,7.34s.79,1.3.49,2.06-.54.97-1.27,1.29c0,0-.2-1.02.25-1.55,0,0-.64.49-.37,1.61,0,0-.92-.82-.58-1.65,0,0,.25-.55.75-.94,0,0,.71-.71.73-.82Z"/>
          <path class="cls-5" d="m29.35,5.75s.99-.05,1.3.46.36.76.29,1.41c0,0-.63-.26-.77-.78,0,0,.06.64.77.89,0,0-.76.33-1.11-.23,0,0-.22-.39-.27-.9,0,0-.15-.78-.21-.84Z"/>
          <path class="cls-5" d="m38.94,10.07s1.07-.04,1.42.48.39.78.32,1.43c0,0-.69-.27-.85-.8,0,0,.07.66.84.91,0,0-.83.33-1.2-.25,0,0-.24-.4-.29-.92,0,0-.17-.8-.23-.86Z"/>
          <path class="cls-5" d="m34.73,11.4s.13,1.3-.53,1.76-1,.52-1.88.47c0,0,.3-.86,1.01-1.08,0,0-.87.12-1.15,1.07,0,0-.5-.99.24-1.48,0,0,.52-.32,1.2-.41,0,0,1.05-.25,1.12-.33Z"/>
          <path class="cls-5" d="m18.98,14.24s1.92.27,1.94,1.65c0,0-.05.87-.14,1.15,0,0-.69-.43-.89-1.22,0,0,.04.92.84,1.35,0,0-.98-.06-1.29-.33s-.39-1.48-.37-1.82.02-.47-.09-.78Z"/>
          <path class="cls-5" d="m22.56,16.83s1.78-.77,2.57.51c0,0,.44.84.52,1.15,0,0-.83-.04-1.44-.67,0,0,.55.84,1.46.82,0,0-.86.47-1.27.38s-1.16-1.18-1.33-1.51-.25-.45-.51-.68Z"/>
          <path class="cls-5" d="m23.14,20.37s1.71.24,1.72,1.57c0,0-.06.84-.14,1.1,0,0-.61-.41-.78-1.16,0,0,.03.88.73,1.29,0,0-.87-.05-1.14-.3s-.33-1.42-.31-1.75.02-.45-.07-.75Z"/>
          <path class="cls-5" d="m33.17,21.98s.17,1.67-.67,2.26-1.27.67-2.37.61c0,0,.38-1.1,1.27-1.38,0,0-1.09.15-1.45,1.38,0,0-.63-1.27.3-1.9,0,0,.65-.41,1.51-.53,0,0,1.32-.32,1.41-.43Z"/>
          <path class="cls-5" d="m28.63,23.54s-.25,1.46-1.41,1.43c0,0-.73-.07-.96-.15,0,0,.37-.51,1.03-.64,0,0-.77,0-1.14.59,0,0,.06-.75.29-.97s1.25-.24,1.53-.21.39.03.65-.04Z"/>
          <path class="cls-5" d="m29.61,15.34s-.47,1.44-1.33,1.65-1.22.14-2.06-.28c0,0,.69-.78,1.48-.73,0,0-.9-.23-1.62.66,0,0-.03-1.26.91-1.47,0,0,.66-.12,1.37.06,0,0,1.14.17,1.25.11Z"/>
          <path class="cls-5" d="m34.45,15.51s2.28.64,2.04,2.48c0,0-.24,1.15-.4,1.51,0,0-.75-.68-.84-1.76,0,0-.13,1.23.75,1.92,0,0-1.18-.22-1.5-.62s-.18-2.04-.09-2.48.11-.62.04-1.05Z"/>
          <path class="cls-5" d="m35.01,12.99s2.05.29,2.08,1.74c0,0-.05.91-.15,1.21,0,0-.74-.46-.96-1.29,0,0,.05.97.9,1.43,0,0-1.05-.06-1.38-.35s-.42-1.57-.4-1.92.02-.49-.1-.82Z"/>
          <path class="cls-5" d="m38.34,10.89s1.33,1.48,1.18,2.49-.37,1.33-1.16,1.87c0,0-.54-1.25-.15-2,0,0-.63.74.02,2.1,0,0-1.35-.85-1.17-1.95,0,0,.14-.75.64-1.33,0,0,.66-1.03.64-1.18Z"/>
          <path class="cls-5" d="m32.15,17.41s.11.93-.41,1.25-.79.37-1.48.33c0,0,.24-.61.79-.77,0,0-.68.08-.9.76,0,0-.39-.71.18-1.06,0,0,.41-.23.94-.29,0,0,.82-.18.88-.23Z"/>
          <path class="cls-5" d="m37.33,17.77s1.25-.68,1.97-.27.92.7,1.22,1.52c0,0-.98.09-1.48-.46,0,0,.47.74,1.53.59,0,0-.79.88-1.57.42,0,0-.53-.34-.89-.92,0,0-.67-.85-.78-.88Z"/>
          <path class="cls-5" d="m39.31,25.05s-.28,1.6-1.4,1.59c0,0-.71-.06-.93-.15,0,0,.38-.57,1.02-.72,0,0-.75.02-1.13.67,0,0,.08-.82.31-1.07s1.22-.29,1.49-.26.38.02.64-.06Z"/>
          <path class="cls-5" d="m48.15,11.96s-.47,1.68-1.4,1.98-1.34.25-2.26-.16c0,0,.73-.95,1.6-.94,0,0-1-.2-1.75.88,0,0-.08-1.43.95-1.75,0,0,.71-.19,1.5-.04,0,0,1.26.1,1.37.03Z"/>
          <path class="cls-5" d="m44.53,10.02s.01,1.66-.76,2.18-1.15.59-2.1.46c0,0,.42-1.06,1.21-1.29,0,0-.96.09-1.37,1.27,0,0-.45-1.29.41-1.85,0,0,.6-.37,1.35-.43,0,0,1.17-.24,1.26-.34Z"/>
          <path class="cls-5" d="m43.83,13.38s-.05,1.15-.74,1.44-1.02.3-1.83.12c0,0,.4-.7,1.09-.78,0,0-.83-.03-1.23.75,0,0-.34-.93.43-1.25,0,0,.53-.2,1.19-.17,0,0,1.02-.06,1.1-.12Z"/>
          <path class="cls-5" d="m47.1,14.55s.9.94.68,1.69-.44,1.01-1.14,1.5c0,0-.3-.85.1-1.45,0,0-.59.61-.21,1.53,0,0-.99-.48-.73-1.3,0,0,.2-.56.66-1.04,0,0,.64-.83.64-.93Z"/>
          <path class="cls-5" d="m43.48,16.98s.6.96.31,1.55-.51.77-1.15,1.05c0,0-.12-.77.29-1.2,0,0-.57.41-.4,1.25,0,0-.74-.58-.41-1.23,0,0,.24-.44.69-.76,0,0,.65-.58.67-.67Z"/>
          <path class="cls-5" d="m46.47,24.25s.1,1.85-.55,2.51-.98.76-1.83.7c0,0,.31-1.22.99-1.55,0,0-.84.18-1.13,1.55,0,0-.46-1.4.26-2.11,0,0,.51-.46,1.17-.61,0,0,1.02-.38,1.09-.49Z"/>
          <path class="cls-5" d="m32.39,28.32s-.27,2.09-1.55,2.17c0,0-.81-.03-1.07-.11,0,0,.41-.77,1.14-1.01,0,0-.86.08-1.27.96,0,0,.06-1.06.32-1.41s1.39-.48,1.7-.46.43,0,.73-.13Z"/>
          <path class="cls-5" d="m32.75,29.66s1.19-1.5,2.35-.86c0,0,.69.46.88.67,0,0-.71.38-1.46.18,0,0,.79.4,1.54-.06,0,0-.54.8-.92.94s-1.43-.38-1.7-.56-.38-.24-.69-.3Z"/>
          <path class="cls-5" d="m40,29.02s1.86.69,1.6,2.02c0,0-.23.82-.38,1.06,0,0-.6-.57-.64-1.37,0,0-.14.89.56,1.48,0,0-.96-.28-1.22-.61s-.09-1.51,0-1.82.11-.44.07-.77Z"/>
          <path class="cls-5" d="m42.1,29.96s1.48-.84,2.26.14c0,0,.44.66.53.9,0,0-.72.06-1.29-.4,0,0,.54.64,1.32.53,0,0-.71.49-1.07.46s-1.09-.86-1.26-1.12-.25-.35-.49-.51Z"/>
          <path class="cls-3" d="m19.61,8.51s1.38,0,1.54.97c0,0,.05.62.02.83,0,0-.53-.24-.75-.77,0,0,.13.65.73.87,0,0-.69.06-.94-.1s-.43-1.01-.45-1.25-.04-.33-.14-.54Z"/>
        </g>
      </g>
      <text class="cls-6" transform="translate(62.11 32.21)"><tspan class="cls-1" x="0" y="0">T</tspan><tspan x="5.32" y="0">ou</tspan><tspan class="cls-7" x="19.25" y="0">g</tspan><tspan x="27.15" y="0">aoug Green</tspan></text>
    </g>
  </g>
</svg>