<?xml version="1.0" encoding="UTF-8"?>
<svg id="Calque_3" data-name="Calque 3" xmlns="http://www.w3.org/2000/svg" viewBox="0 0 155.48 130.39">
  <defs>
    <style>
      .cls-1, .cls-2, .cls-3, .cls-4 {
        isolation: isolate;
      }

      .cls-1, .cls-5, .cls-3, .cls-4 {
        fill: #7dbb4c;
      }

      .cls-1, .cls-3, .cls-4 {
        font-family: TwCenMT-Regular, 'Tw Cen MT';
        font-size: 19.88px;
      }

      .cls-6 {
        fill: #602b2b;
      }

      .cls-6, .cls-7, .cls-5, .cls-8 {
        stroke-width: 0px;
      }

      .cls-7 {
        fill: none;
      }

      .cls-3 {
        letter-spacing: -.08em;
      }

      .cls-4 {
        letter-spacing: -.02em;
      }

      .cls-8 {
        fill: #6fb635;
      }
    </style>
  </defs>
  <g>
    <path class="cls-6" d="m64.56,91.99s2.53-1.48,6.92-2.41c5.02-1.07,12.22-1.6,16.75-1.55,0,0,.98-12.25.82-12.9,0,0,1.05-11.07-8.56-16.81-9.74-6.4-12.99-8.93-15.73-11.43,0,0-5.96-6.87-5.99-14.45-.03-7.59.34-19.23.34-19.23l.8,16.03s.73,11.19,5.9,15.31c5.17,4.12,3.63,3.11,6.32,4.75s8.76,4.85,8.76,4.85c-.65-1.33-1.47-3.38-1.78-5.97-.38-3.13.19-5.45,1.52-10.65,2.61-10.2,2.56-9.56,2.79-10.86,1.27-7.34.4-12.94.56-12.95.14,0,.88,4.17.56,9.69-.24,4.29-1.07,8.48-2.34,14.89-.61,3.11-.85,4-.82,5.71.06,3.59,1.22,6.71,2.06,8.97.62,1.67,1.23,2.99,1.66,3.86,0,0,5.36,4.64,5.5,5.88,0,0,2.39-11.24,5.76-14.49,0,0,4.07-6.28,4.12-7.98s1.73-4.5,1.31-9.97c0,0,.3,7.73-.14,9.58s-3.02,7.21-4.1,9.2-1.97,3.96-1.97,3.96c0,0,1.48-1.92,6.81-2.55,0,0,5.34-.23,6.44-.96,0,0,4.1-1.76,3.98-2.83,0,0-1.66,2.8-4.22,3.43,0,0-2.99.81-5.55,1.16s-5.32,1.42-6.87,3.15-2.65,5.03-2.97,8.62c-.32,3.59-.39,4.23-.39,4.23,0,0,1.56,5.2,1.51,8.1s0,12.6,0,12.6c0,0,19.01.62,23.62,3.93,0,0-29.75-3.68-53.59.12"/>
    <path class="cls-5" d="m155.48,107.73c-48.45-40.71-155.48,0-155.48,0h155.48Z"/>
    <path class="cls-8" d="m57.58,0s4.34-.02,4.85,3.07c0,0,.16,1.97.06,2.62,0,0-1.67-.75-2.38-2.45,0,0,.4,2.05,2.29,2.76,0,0-2.19.19-2.96-.31s-1.35-3.21-1.4-3.97S57.92.67,57.58,0Z"/>
    <path class="cls-8" d="m82.72.68s.55,4.6-1.38,6.3-2.94,1.99-5.56,1.93c0,0,.81-3.08,2.88-3.96,0,0-2.58.54-3.31,3.96,0,0-1.6-3.44.54-5.28,0,0,1.51-1.21,3.54-1.63,0,0,3.1-1.04,3.3-1.33h-.01Z"/>
    <path class="cls-8" d="m48.07,3.74s6.54-.03,7.3,4.35c0,0,.25,2.79.09,3.72,0,0-2.52-1.06-3.58-3.47,0,0,.6,2.9,3.45,3.91,0,0-3.29.27-4.46-.44s-2.03-4.55-2.11-5.62-.18-1.49-.69-2.44h0Z"/>
    <path class="cls-8" d="m87.8,5.04s.45,3.24-1.12,4.44-2.38,1.4-4.5,1.36c0,0,.65-2.17,2.33-2.79,0,0-2.09.38-2.68,2.79,0,0-1.3-2.42.44-3.72,0,0,1.22-.85,2.86-1.15,0,0,2.51-.73,2.67-.94h0Z"/>
    <path class="cls-8" d="m97.28,13.46s-.05,2.82-1.46,3.66-2.1.91-3.81.63c0,0,.8-1.77,2.24-2.1,0,0-1.73.08-2.52,2.07,0,0-.74-2.22.82-3.12,0,0,1.1-.58,2.46-.64,0,0,2.12-.33,2.28-.48v-.02Z"/>
    <path class="cls-8" d="m92.46,21.4s-.03,2.95-1.57,3.81-2.28.94-4.14.63c0,0,.86-1.85,2.42-2.18,0,0-1.89.07-2.73,2.14,0,0-.82-2.33.87-3.25,0,0,1.19-.6,2.67-.65,0,0,2.31-.33,2.48-.49h0Z"/>
    <path class="cls-7" d="m72.03,57.65s-.3,3.16-1.94,3.98-2.41.85-4.28.39c0,0,1.04-1.92,2.66-2.17,0,0-1.93-.06-2.97,2.11,0,0-.63-2.55,1.18-3.43,0,0,1.27-.56,2.78-.51,0,0,2.38-.19,2.57-.35v-.02Z"/>
    <path class="cls-8" d="m92.61,10.23s.47,4.47-1.86,6.02-3.52,1.78-6.59,1.6c0,0,1.07-2.94,3.53-3.69,0,0-3.04.4-4.04,3.67,0,0-1.75-3.39.84-5.07,0,0,1.82-1.09,4.21-1.41,0,0,3.68-.86,3.92-1.13h0Z"/>
    <path class="cls-8" d="m69.26,8.72s1.42,2.76.4,4.33-1.68,2.01-3.59,2.64c0,0-.1-2.15,1.2-3.23,0,0-1.74,1-1.51,3.35,0,0-1.92-1.76-.79-3.47,0,0,.82-1.15,2.19-1.93,0,0,2.01-1.45,2.09-1.68h.01Z"/>
    <path class="cls-8" d="m67.72,18.96s1.48,2.83.37,4.46-1.82,2.09-3.86,2.77c0,0-.08-2.22,1.32-3.35,0,0-1.87,1.05-1.66,3.47,0,0-2.03-1.79-.79-3.56,0,0,.89-1.19,2.36-2.02,0,0,2.16-1.52,2.25-1.77h.01Z"/>
    <path class="cls-8" d="m49.1,21.28s2.47-.12,3.26,1.15.89,1.91.71,3.52c0,0-1.59-.65-1.94-1.96,0,0,.14,1.61,1.92,2.23,0,0-1.91.82-2.77-.58,0,0-.56-.99-.67-2.26,0,0-.38-1.96-.52-2.1h.01Z"/>
    <path class="cls-8" d="m55.5,16.57s4.8.68,4.87,4.05c0,0-.13,2.12-.34,2.8,0,0-1.73-1.07-2.24-2.99,0,0,.12,2.24,2.1,3.31,0,0-2.45-.15-3.22-.81s-.99-3.63-.93-4.46.03-1.14-.24-1.91h0Z"/>
    <path class="cls-8" d="m75.76,24.41s-.21,3.14-1.99,3.93-2.62.82-4.7.33c0,0,1.08-1.9,2.85-2.13,0,0-2.13-.08-3.2,2.06,0,0-.79-2.55,1.17-3.4,0,0,1.37-.54,3.05-.47,0,0,2.62-.16,2.82-.32Z"/>
    <path class="cls-8" d="m76.75,28.53s1.56,3.56.23,5.43-2.16,2.36-4.51,2.98c0,0,0-2.69,1.65-3.93,0,0-2.17,1.1-2.03,4.04,0,0-2.23-2.36-.75-4.39,0,0,1.07-1.36,2.77-2.22,0,0,2.52-1.64,2.63-1.92h.01Z"/>
    <path class="cls-8" d="m66.7,29.59s1.37,3.41.49,5.07-1.46,2.07-3.17,2.51c0,0-.16-2.5.99-3.56,0,0-1.55.89-1.27,3.65,0,0-1.79-2.33-.81-4.13,0,0,.71-1.2,1.93-1.9,0,0,1.78-1.37,1.84-1.64Z"/>
    <path class="cls-8" d="m80.96,18.37s1.98,3.26,1.23,5.16-1.34,2.43-3.18,3.23c0,0-.51-2.56.62-3.89,0,0-1.6,1.23-.92,4.03,0,0-2.31-2.06-1.46-4.12,0,0,.63-1.39,1.88-2.35,0,0,1.79-1.78,1.82-2.06h0Z"/>
    <path class="cls-8" d="m73.46,14.39s2.47-.12,3.26,1.15.89,1.91.71,3.52c0,0-1.59-.65-1.94-1.96,0,0,.14,1.61,1.92,2.23,0,0-1.91.82-2.77-.58,0,0-.56-.99-.67-2.26,0,0-.38-1.96-.52-2.1h0Z"/>
    <path class="cls-8" d="m97.48,25.21s2.69-.11,3.56,1.2.98,1.95.8,3.59c0,0-1.73-.67-2.12-2.01,0,0,.17,1.64,2.1,2.29,0,0-2.07.83-3.01-.61,0,0-.61-1.01-.74-2.3,0,0-.43-2-.58-2.14v-.02Z"/>
    <path class="cls-8" d="m86.94,28.53s.33,3.27-1.33,4.4c-1.66,1.13-2.51,1.31-4.71,1.18,0,0,.76-2.15,2.52-2.7,0,0-2.17.3-2.88,2.69,0,0-1.24-2.48.6-3.71,0,0,1.3-.8,3-1.03,0,0,2.62-.63,2.8-.83Z"/>
    <path class="cls-8" d="m47.5,35.65s4.8.68,4.86,4.12c0,0-.13,2.17-.35,2.87,0,0-1.73-1.09-2.23-3.05,0,0,.11,2.29,2.09,3.38,0,0-2.45-.15-3.22-.82s-.98-3.71-.92-4.55.04-1.17-.23-1.95Z"/>
    <path class="cls-8" d="m56.48,42.13s4.45-1.93,6.42,1.27c0,0,1.1,2.1,1.3,2.88,0,0-2.07-.1-3.6-1.67,0,0,1.37,2.09,3.66,2.05,0,0-2.16,1.17-3.19.95s-2.9-2.96-3.32-3.78-.62-1.11-1.28-1.7h0Z"/>
    <path class="cls-8" d="m57.93,50.98s4.27.6,4.29,3.92c0,0-.14,2.09-.35,2.76,0,0-1.53-1.03-1.96-2.91,0,0,.08,2.21,1.83,3.23,0,0-2.18-.11-2.86-.75s-.83-3.56-.77-4.37.05-1.12-.18-1.87h0Z"/>
    <path class="cls-8" d="m83.03,55.03s.41,4.19-1.68,5.65-3.17,1.68-5.93,1.52c0,0,.96-2.76,3.18-3.46,0,0-2.74.38-3.64,3.45,0,0-1.57-3.18.76-4.76,0,0,1.64-1.03,3.79-1.33,0,0,3.31-.81,3.53-1.07h-.01Z"/>
    <path class="cls-8" d="m71.66,58.92s-.64,3.66-3.53,3.57c0,0-1.82-.19-2.4-.38,0,0,.94-1.28,2.59-1.6,0,0-1.92,0-2.86,1.48,0,0,.16-1.87.73-2.44s3.13-.61,3.83-.53.98.07,1.64-.1Z"/>
    <path class="cls-8" d="m74.11,38.39s-1.17,3.61-3.32,4.12-3.07.34-5.16-.7c0,0,1.73-1.96,3.71-1.82,0,0-2.26-.59-4.06,1.66,0,0-.08-3.15,2.29-3.69,0,0,1.64-.31,3.42.15,0,0,2.86.42,3.13.28h-.01Z"/>
    <path class="cls-8" d="m86.24,38.84s5.71,1.6,5.1,6.22c0,0-.59,2.88-1,3.78,0,0-1.89-1.7-2.11-4.4,0,0-.32,3.08,1.88,4.81,0,0-2.95-.55-3.76-1.56s-.45-5.1-.21-6.21.28-1.55.11-2.64h0Z"/>
    <path class="cls-8" d="m87.63,32.51s5.14.72,5.22,4.36c0,0-.14,2.29-.37,3.02,0,0-1.85-1.15-2.4-3.22,0,0,.13,2.42,2.25,3.57,0,0-2.62-.16-3.45-.87s-1.05-3.92-1-4.81.04-1.23-.25-2.06h0Z"/>
    <path class="cls-8" d="m95.98,27.26s3.32,3.72,2.96,6.24-.92,3.32-2.91,4.68c0,0-1.35-3.12-.36-5,0,0-1.57,1.86.05,5.24,0,0-3.37-2.13-2.94-4.89,0,0,.36-1.87,1.6-3.33,0,0,1.65-2.58,1.61-2.95h0Z"/>
    <path class="cls-8" d="m80.49,43.59s.27,2.33-1.04,3.14-1.98.93-3.7.83c0,0,.59-1.53,1.98-1.92,0,0-1.71.2-2.26,1.91,0,0-.99-1.77.46-2.64,0,0,1.02-.57,2.36-.73,0,0,2.06-.44,2.2-.59Z"/>
    <path class="cls-8" d="m93.45,44.49s3.13-1.71,4.93-.67,2.31,1.74,3.06,3.81c0,0-2.45.22-3.7-1.15,0,0,1.17,1.86,3.84,1.49,0,0-1.98,2.21-3.94,1.04,0,0-1.32-.84-2.23-2.31,0,0-1.68-2.13-1.95-2.21h0Z"/>
    <path class="cls-8" d="m98.41,62.71s-.7,4-3.52,3.98c0,0-1.77-.16-2.33-.36,0,0,.94-1.42,2.56-1.8,0,0-1.87.04-2.82,1.67,0,0,.2-2.05.77-2.68s3.06-.73,3.74-.66.95.06,1.6-.15Z"/>
    <path class="cls-8" d="m120.52,29.95s-1.17,4.2-3.51,4.95-3.35.63-5.67-.39c0,0,1.83-2.37,4-2.36,0,0-2.5-.49-4.39,2.21,0,0-.19-3.58,2.38-4.38,0,0,1.79-.48,3.75-.1,0,0,3.15.25,3.43.07h.01Z"/>
    <path class="cls-8" d="m111.48,25.08s.04,4.15-1.9,5.47-2.88,1.47-5.26,1.15c0,0,1.05-2.66,3.02-3.23,0,0-2.4.22-3.42,3.19,0,0-1.11-3.23,1.02-4.64,0,0,1.5-.92,3.39-1.08,0,0,2.93-.61,3.14-.85h.01Z"/>
    <path class="cls-8" d="m109.71,33.5s-.13,2.88-1.85,3.61-2.55.75-4.59.3c0,0,1.01-1.74,2.74-1.95,0,0-2.08-.08-3.08,1.89,0,0-.84-2.34,1.06-3.12,0,0,1.33-.49,2.97-.43,0,0,2.56-.15,2.75-.29h0Z"/>
    <path class="cls-8" d="m117.9,36.41s2.26,2.36,1.7,4.24-1.1,2.53-2.85,3.74c0,0-.74-2.14.25-3.62,0,0-1.46,1.53-.53,3.83,0,0-2.47-1.19-1.83-3.26,0,0,.49-1.4,1.64-2.61,0,0,1.6-2.07,1.61-2.33h.01Z"/>
    <path class="cls-8" d="m108.85,42.52s1.51,2.41.77,3.89-1.28,1.93-2.89,2.63c0,0-.3-1.94.74-3.01,0,0-1.43,1.02-1,3.13,0,0-1.85-1.46-1.02-3.08,0,0,.61-1.09,1.73-1.89,0,0,1.62-1.45,1.67-1.66h0Z"/>
    <path class="cls-8" d="m116.32,60.72s.26,4.63-1.37,6.27-2.45,1.9-4.57,1.76c0,0,.78-3.06,2.49-3.88,0,0-2.1.46-2.84,3.87,0,0-1.16-3.5.65-5.27,0,0,1.27-1.16,2.92-1.52,0,0,2.55-.94,2.72-1.23Z"/>
    <path class="cls-8" d="m81.09,70.89s-.67,5.24-3.89,5.43c0,0-2.02-.07-2.67-.28,0,0,1.03-1.92,2.86-2.54,0,0-2.14.2-3.17,2.4,0,0,.15-2.66.79-3.53s3.47-1.19,4.25-1.16,1.09,0,1.82-.32h0Z"/>
    <path class="cls-8" d="m81.98,74.24s2.97-3.76,5.87-2.16c0,0,1.74,1.16,2.21,1.68,0,0-1.77.95-3.66.44,0,0,1.97,1.01,3.86-.16,0,0-1.35,2.01-2.3,2.35s-3.58-.95-4.25-1.4-.95-.59-1.74-.74h.01Z"/>
    <path class="cls-8" d="m100.14,72.63s4.65,1.74,4.01,5.06c0,0-.58,2.05-.94,2.67,0,0-1.5-1.43-1.61-3.43,0,0-.36,2.22,1.4,3.71,0,0-2.41-.7-3.05-1.52s-.22-3.78.01-4.57.28-1.11.17-1.92h.01Z"/>
    <path class="cls-8" d="m105.38,75.01s3.71-2.1,5.65.36c0,0,1.1,1.64,1.33,2.26,0,0-1.8.15-3.23-1,0,0,1.34,1.6,3.31,1.31,0,0-1.78,1.21-2.69,1.14s-2.72-2.16-3.14-2.8-.62-.87-1.23-1.29v.02Z"/>
    <path class="cls-7" d="m49.1,21.29s3.45-.02,3.85,2.42c0,0,.13,1.55.05,2.07,0,0-1.33-.59-1.89-1.93,0,0,.32,1.62,1.82,2.18,0,0-1.74.15-2.35-.25s-1.07-2.53-1.12-3.13-.09-.83-.36-1.36Z"/>
  </g>
  <g>
    <path class="cls-6" d="m64.56,91.99s2.53-1.48,6.92-2.41c5.02-1.07,12.22-1.6,16.75-1.55,0,0,.98-12.25.82-12.9,0,0,1.05-11.07-8.56-16.81-9.74-6.4-12.99-8.93-15.73-11.43,0,0-5.96-6.87-5.99-14.45-.03-7.59.34-19.23.34-19.23l.8,16.03s.73,11.19,5.9,15.31c5.17,4.12,3.63,3.11,6.32,4.75s8.76,4.85,8.76,4.85c-.65-1.33-1.47-3.38-1.78-5.97-.38-3.13.19-5.45,1.52-10.65,2.61-10.2,2.56-9.56,2.79-10.86,1.27-7.34.4-12.94.56-12.95.14,0,.88,4.17.56,9.69-.24,4.29-1.07,8.48-2.34,14.89-.61,3.11-.85,4-.82,5.71.06,3.59,1.22,6.71,2.06,8.97.62,1.67,1.23,2.99,1.66,3.86,0,0,5.36,4.64,5.5,5.88,0,0,2.39-11.24,5.76-14.49,0,0,4.07-6.28,4.12-7.98s1.73-4.5,1.31-9.97c0,0,.3,7.73-.14,9.58s-3.02,7.21-4.1,9.2-1.97,3.96-1.97,3.96c0,0,1.48-1.92,6.81-2.55,0,0,5.34-.23,6.44-.96,0,0,4.1-1.76,3.98-2.83,0,0-1.66,2.8-4.22,3.43,0,0-2.99.81-5.55,1.16s-5.32,1.42-6.87,3.15-2.65,5.03-2.97,8.62c-.32,3.59-.39,4.23-.39,4.23,0,0,1.56,5.2,1.51,8.1s0,12.6,0,12.6c0,0,19.01.62,23.62,3.93,0,0-29.75-3.68-53.59.12"/>
    <path class="cls-5" d="m155.48,107.73c-48.45-40.71-155.48,0-155.48,0h155.48Z"/>
    <path class="cls-8" d="m57.58,0s4.34-.02,4.85,3.07c0,0,.16,1.97.06,2.62,0,0-1.67-.75-2.38-2.45,0,0,.4,2.05,2.29,2.76,0,0-2.19.19-2.96-.31s-1.35-3.21-1.4-3.97S57.92.67,57.58,0Z"/>
    <path class="cls-8" d="m82.72.68s.55,4.6-1.38,6.3-2.94,1.99-5.56,1.93c0,0,.81-3.08,2.88-3.96,0,0-2.58.54-3.31,3.96,0,0-1.6-3.44.54-5.28,0,0,1.51-1.21,3.54-1.63,0,0,3.1-1.04,3.3-1.33h-.01Z"/>
    <path class="cls-8" d="m48.07,3.74s6.54-.03,7.3,4.35c0,0,.25,2.79.09,3.72,0,0-2.52-1.06-3.58-3.47,0,0,.6,2.9,3.45,3.91,0,0-3.29.27-4.46-.44s-2.03-4.55-2.11-5.62-.18-1.49-.69-2.44h0Z"/>
    <path class="cls-8" d="m87.8,5.04s.45,3.24-1.12,4.44-2.38,1.4-4.5,1.36c0,0,.65-2.17,2.33-2.79,0,0-2.09.38-2.68,2.79,0,0-1.3-2.42.44-3.72,0,0,1.22-.85,2.86-1.15,0,0,2.51-.73,2.67-.94h0Z"/>
    <path class="cls-8" d="m97.28,13.46s-.05,2.82-1.46,3.66-2.1.91-3.81.63c0,0,.8-1.77,2.24-2.1,0,0-1.73.08-2.52,2.07,0,0-.74-2.22.82-3.12,0,0,1.1-.58,2.46-.64,0,0,2.12-.33,2.28-.48v-.02Z"/>
    <path class="cls-8" d="m92.46,21.4s-.03,2.95-1.57,3.81-2.28.94-4.14.63c0,0,.86-1.85,2.42-2.18,0,0-1.89.07-2.73,2.14,0,0-.82-2.33.87-3.25,0,0,1.19-.6,2.67-.65,0,0,2.31-.33,2.48-.49h0Z"/>
    <path class="cls-7" d="m72.03,57.65s-.3,3.16-1.94,3.98-2.41.85-4.28.39c0,0,1.04-1.92,2.66-2.17,0,0-1.93-.06-2.97,2.11,0,0-.63-2.55,1.18-3.43,0,0,1.27-.56,2.78-.51,0,0,2.38-.19,2.57-.35v-.02Z"/>
    <path class="cls-8" d="m92.61,10.23s.47,4.47-1.86,6.02-3.52,1.78-6.59,1.6c0,0,1.07-2.94,3.53-3.69,0,0-3.04.4-4.04,3.67,0,0-1.75-3.39.84-5.07,0,0,1.82-1.09,4.21-1.41,0,0,3.68-.86,3.92-1.13h0Z"/>
    <path class="cls-8" d="m69.26,8.72s1.42,2.76.4,4.33-1.68,2.01-3.59,2.64c0,0-.1-2.15,1.2-3.23,0,0-1.74,1-1.51,3.35,0,0-1.92-1.76-.79-3.47,0,0,.82-1.15,2.19-1.93,0,0,2.01-1.45,2.09-1.68h.01Z"/>
    <path class="cls-8" d="m67.72,18.96s1.48,2.83.37,4.46-1.82,2.09-3.86,2.77c0,0-.08-2.22,1.32-3.35,0,0-1.87,1.05-1.66,3.47,0,0-2.03-1.79-.79-3.56,0,0,.89-1.19,2.36-2.02,0,0,2.16-1.52,2.25-1.77h.01Z"/>
    <path class="cls-8" d="m49.1,21.28s2.47-.12,3.26,1.15.89,1.91.71,3.52c0,0-1.59-.65-1.94-1.96,0,0,.14,1.61,1.92,2.23,0,0-1.91.82-2.77-.58,0,0-.56-.99-.67-2.26,0,0-.38-1.96-.52-2.1h.01Z"/>
    <path class="cls-8" d="m55.5,16.57s4.8.68,4.87,4.05c0,0-.13,2.12-.34,2.8,0,0-1.73-1.07-2.24-2.99,0,0,.12,2.24,2.1,3.31,0,0-2.45-.15-3.22-.81s-.99-3.63-.93-4.46.03-1.14-.24-1.91h0Z"/>
    <path class="cls-8" d="m75.76,24.41s-.21,3.14-1.99,3.93-2.62.82-4.7.33c0,0,1.08-1.9,2.85-2.13,0,0-2.13-.08-3.2,2.06,0,0-.79-2.55,1.17-3.4,0,0,1.37-.54,3.05-.47,0,0,2.62-.16,2.82-.32Z"/>
    <path class="cls-8" d="m76.75,28.53s1.56,3.56.23,5.43-2.16,2.36-4.51,2.98c0,0,0-2.69,1.65-3.93,0,0-2.17,1.1-2.03,4.04,0,0-2.23-2.36-.75-4.39,0,0,1.07-1.36,2.77-2.22,0,0,2.52-1.64,2.63-1.92h.01Z"/>
    <path class="cls-8" d="m66.7,29.59s1.37,3.41.49,5.07-1.46,2.07-3.17,2.51c0,0-.16-2.5.99-3.56,0,0-1.55.89-1.27,3.65,0,0-1.79-2.33-.81-4.13,0,0,.71-1.2,1.93-1.9,0,0,1.78-1.37,1.84-1.64Z"/>
    <path class="cls-8" d="m80.96,18.37s1.98,3.26,1.23,5.16-1.34,2.43-3.18,3.23c0,0-.51-2.56.62-3.89,0,0-1.6,1.23-.92,4.03,0,0-2.31-2.06-1.46-4.12,0,0,.63-1.39,1.88-2.35,0,0,1.79-1.78,1.82-2.06h0Z"/>
    <path class="cls-8" d="m73.46,14.39s2.47-.12,3.26,1.15.89,1.91.71,3.52c0,0-1.59-.65-1.94-1.96,0,0,.14,1.61,1.92,2.23,0,0-1.91.82-2.77-.58,0,0-.56-.99-.67-2.26,0,0-.38-1.96-.52-2.1h0Z"/>
    <path class="cls-8" d="m97.48,25.21s2.69-.11,3.56,1.2.98,1.95.8,3.59c0,0-1.73-.67-2.12-2.01,0,0,.17,1.64,2.1,2.29,0,0-2.07.83-3.01-.61,0,0-.61-1.01-.74-2.3,0,0-.43-2-.58-2.14v-.02Z"/>
    <path class="cls-8" d="m86.94,28.53s.33,3.27-1.33,4.4c-1.66,1.13-2.51,1.31-4.71,1.18,0,0,.76-2.15,2.52-2.7,0,0-2.17.3-2.88,2.69,0,0-1.24-2.48.6-3.71,0,0,1.3-.8,3-1.03,0,0,2.62-.63,2.8-.83Z"/>
    <path class="cls-8" d="m47.5,35.65s4.8.68,4.86,4.12c0,0-.13,2.17-.35,2.87,0,0-1.73-1.09-2.23-3.05,0,0,.11,2.29,2.09,3.38,0,0-2.45-.15-3.22-.82s-.98-3.71-.92-4.55.04-1.17-.23-1.95Z"/>
    <path class="cls-8" d="m56.48,42.13s4.45-1.93,6.42,1.27c0,0,1.1,2.1,1.3,2.88,0,0-2.07-.1-3.6-1.67,0,0,1.37,2.09,3.66,2.05,0,0-2.16,1.17-3.19.95s-2.9-2.96-3.32-3.78-.62-1.11-1.28-1.7h0Z"/>
    <path class="cls-8" d="m57.93,50.98s4.27.6,4.29,3.92c0,0-.14,2.09-.35,2.76,0,0-1.53-1.03-1.96-2.91,0,0,.08,2.21,1.83,3.23,0,0-2.18-.11-2.86-.75s-.83-3.56-.77-4.37.05-1.12-.18-1.87h0Z"/>
    <path class="cls-8" d="m83.03,55.03s.41,4.19-1.68,5.65-3.17,1.68-5.93,1.52c0,0,.96-2.76,3.18-3.46,0,0-2.74.38-3.64,3.45,0,0-1.57-3.18.76-4.76,0,0,1.64-1.03,3.79-1.33,0,0,3.31-.81,3.53-1.07h-.01Z"/>
    <path class="cls-8" d="m71.66,58.92s-.64,3.66-3.53,3.57c0,0-1.82-.19-2.4-.38,0,0,.94-1.28,2.59-1.6,0,0-1.92,0-2.86,1.48,0,0,.16-1.87.73-2.44s3.13-.61,3.83-.53.98.07,1.64-.1Z"/>
    <path class="cls-8" d="m74.11,38.39s-1.17,3.61-3.32,4.12-3.07.34-5.16-.7c0,0,1.73-1.96,3.71-1.82,0,0-2.26-.59-4.06,1.66,0,0-.08-3.15,2.29-3.69,0,0,1.64-.31,3.42.15,0,0,2.86.42,3.13.28h-.01Z"/>
    <path class="cls-8" d="m86.24,38.84s5.71,1.6,5.1,6.22c0,0-.59,2.88-1,3.78,0,0-1.89-1.7-2.11-4.4,0,0-.32,3.08,1.88,4.81,0,0-2.95-.55-3.76-1.56s-.45-5.1-.21-6.21.28-1.55.11-2.64h0Z"/>
    <path class="cls-8" d="m87.63,32.51s5.14.72,5.22,4.36c0,0-.14,2.29-.37,3.02,0,0-1.85-1.15-2.4-3.22,0,0,.13,2.42,2.25,3.57,0,0-2.62-.16-3.45-.87s-1.05-3.92-1-4.81.04-1.23-.25-2.06h0Z"/>
    <path class="cls-8" d="m95.98,27.26s3.32,3.72,2.96,6.24-.92,3.32-2.91,4.68c0,0-1.35-3.12-.36-5,0,0-1.57,1.86.05,5.24,0,0-3.37-2.13-2.94-4.89,0,0,.36-1.87,1.6-3.33,0,0,1.65-2.58,1.61-2.95h0Z"/>
    <path class="cls-8" d="m80.49,43.59s.27,2.33-1.04,3.14-1.98.93-3.7.83c0,0,.59-1.53,1.98-1.92,0,0-1.71.2-2.26,1.91,0,0-.99-1.77.46-2.64,0,0,1.02-.57,2.36-.73,0,0,2.06-.44,2.2-.59Z"/>
    <path class="cls-8" d="m93.45,44.49s3.13-1.71,4.93-.67,2.31,1.74,3.06,3.81c0,0-2.45.22-3.7-1.15,0,0,1.17,1.86,3.84,1.49,0,0-1.98,2.21-3.94,1.04,0,0-1.32-.84-2.23-2.31,0,0-1.68-2.13-1.95-2.21h0Z"/>
    <path class="cls-8" d="m98.41,62.71s-.7,4-3.52,3.98c0,0-1.77-.16-2.33-.36,0,0,.94-1.42,2.56-1.8,0,0-1.87.04-2.82,1.67,0,0,.2-2.05.77-2.68s3.06-.73,3.74-.66.95.06,1.6-.15Z"/>
    <path class="cls-8" d="m120.52,29.95s-1.17,4.2-3.51,4.95-3.35.63-5.67-.39c0,0,1.83-2.37,4-2.36,0,0-2.5-.49-4.39,2.21,0,0-.19-3.58,2.38-4.38,0,0,1.79-.48,3.75-.1,0,0,3.15.25,3.43.07h.01Z"/>
    <path class="cls-8" d="m111.48,25.08s.04,4.15-1.9,5.47-2.88,1.47-5.26,1.15c0,0,1.05-2.66,3.02-3.23,0,0-2.4.22-3.42,3.19,0,0-1.11-3.23,1.02-4.64,0,0,1.5-.92,3.39-1.08,0,0,2.93-.61,3.14-.85h.01Z"/>
    <path class="cls-8" d="m109.71,33.5s-.13,2.88-1.85,3.61-2.55.75-4.59.3c0,0,1.01-1.74,2.74-1.95,0,0-2.08-.08-3.08,1.89,0,0-.84-2.34,1.06-3.12,0,0,1.33-.49,2.97-.43,0,0,2.56-.15,2.75-.29h0Z"/>
    <path class="cls-8" d="m117.9,36.41s2.26,2.36,1.7,4.24-1.1,2.53-2.85,3.74c0,0-.74-2.14.25-3.62,0,0-1.46,1.53-.53,3.83,0,0-2.47-1.19-1.83-3.26,0,0,.49-1.4,1.64-2.61,0,0,1.6-2.07,1.61-2.33h.01Z"/>
    <path class="cls-8" d="m108.85,42.52s1.51,2.41.77,3.89-1.28,1.93-2.89,2.63c0,0-.3-1.94.74-3.01,0,0-1.43,1.02-1,3.13,0,0-1.85-1.46-1.02-3.08,0,0,.61-1.09,1.73-1.89,0,0,1.62-1.45,1.67-1.66h0Z"/>
    <path class="cls-8" d="m116.32,60.72s.26,4.63-1.37,6.27-2.45,1.9-4.57,1.76c0,0,.78-3.06,2.49-3.88,0,0-2.1.46-2.84,3.87,0,0-1.16-3.5.65-5.27,0,0,1.27-1.16,2.92-1.52,0,0,2.55-.94,2.72-1.23Z"/>
    <path class="cls-8" d="m81.09,70.89s-.67,5.24-3.89,5.43c0,0-2.02-.07-2.67-.28,0,0,1.03-1.92,2.86-2.54,0,0-2.14.2-3.17,2.4,0,0,.15-2.66.79-3.53s3.47-1.19,4.25-1.16,1.09,0,1.82-.32h0Z"/>
    <path class="cls-8" d="m81.98,74.24s2.97-3.76,5.87-2.16c0,0,1.74,1.16,2.21,1.68,0,0-1.77.95-3.66.44,0,0,1.97,1.01,3.86-.16,0,0-1.35,2.01-2.3,2.35s-3.58-.95-4.25-1.4-.95-.59-1.74-.74h.01Z"/>
    <path class="cls-8" d="m100.14,72.63s4.65,1.74,4.01,5.06c0,0-.58,2.05-.94,2.67,0,0-1.5-1.43-1.61-3.43,0,0-.36,2.22,1.4,3.71,0,0-2.41-.7-3.05-1.52s-.22-3.78.01-4.57.28-1.11.17-1.92h.01Z"/>
    <path class="cls-8" d="m105.38,75.01s3.71-2.1,5.65.36c0,0,1.1,1.64,1.33,2.26,0,0-1.8.15-3.23-1,0,0,1.34,1.6,3.31,1.31,0,0-1.78,1.21-2.69,1.14s-2.72-2.16-3.14-2.8-.62-.87-1.23-1.29v.02Z"/>
    <path class="cls-7" d="m49.1,21.29s3.45-.02,3.85,2.42c0,0,.13,1.55.05,2.07,0,0-1.33-.59-1.89-1.93,0,0,.32,1.62,1.82,2.18,0,0-1.74.15-2.35-.25s-1.07-2.53-1.12-3.13-.09-.83-.36-1.36Z"/>
  </g>
  <g class="cls-2">
    <text class="cls-3" transform="translate(15.29 124.87)"><tspan x="0" y="0">T</tspan></text>
    <text class="cls-1" transform="translate(22.4 124.87)"><tspan x="0" y="0">ou</tspan></text>
    <text class="cls-4" transform="translate(41.05 124.87)"><tspan x="0" y="0">g</tspan></text>
    <text class="cls-1" transform="translate(51.62 124.87)"><tspan x="0" y="0">aoug Green</tspan></text>
  </g>
</svg>