<?xml version="1.0" encoding="UTF-8"?>
<svg id="Calque_1" data-name="Calque 1" xmlns="http://www.w3.org/2000/svg" viewBox="0 0 800 964">
  <defs>
    <style>
      .cls-1 {
        fill: #a5d9e9;
      }

      .cls-1, .cls-2, .cls-3 {
        stroke-width: 0px;
      }

      .cls-3 {
        fill: #fff;
      }
    </style>
  </defs>
  <g>
    <path class="cls-3" d="m800,964H0V.21h800v963.79ZM406.73,0c-1.31,3.06-2.1,4.88-2.85,6.71-15.63,38.2-31.25,76.39-46.87,114.59-50.27,122.91-100.53,245.82-150.83,368.71-12.88,31.46-33.68,56.39-62.47,74.58-11.33,7.16-23.1,13.49-36.7,14.97-30.66,3.35-59.23-3.49-86.11-18.19-1.45-.79-2.93-1.53-5.26-2.75,25.92,60.87,27.55,121.3,5.19,182.69,22.23-5.87,36.13-5.91,51.03,1.64,9.14,4.63,17.85,10.48,25.89,16.87,13.28,10.56,25.73,22.16,38.77,33.03,19.45,16.21,41.69,27.86,64.05,39.53,33.07,17.25,67.13,31.83,103.2,41.34,19,5.01,38.34,8.73,57.53,13.03.12-.49.23-.97.35-1.46-1.4-.48-2.81-.92-4.2-1.43-22.12-8.29-44.56-15.87-66.29-25.09-23.85-10.12-46.3-22.82-64.18-42.31-29.93-32.62-43.61-70.18-36.09-114.58,2.7-15.94,9.4-30.43,14.96-45.39,19.25-51.78,38.17-103.68,57.17-155.55,41.67-113.74,83.31-227.49,124.98-341.24.55-1.5,1.24-2.94,2.21-5.23,1.12,2.44,1.91,4.03,2.59,5.66,60.22,144.55,120.4,289.11,180.65,433.65,12.93,31.02,26.27,61.88,39.16,92.93,13.42,32.31,13.37,64.81-1.88,96.29-9.02,18.62-23.81,33.16-39.8,46.24-20.65,16.9-44.73,27.65-69.18,37.4-16.95,6.76-34.55,11.89-51.01,17.45.55-.06,2.13-.18,3.69-.45,66.5-11.33,128.53-34.57,185.79-70.18,20.62-12.83,41.17-25.79,57.91-43.97,6.56-7.13,14.49-13.45,22.84-18.37,20.2-11.93,41.62-18.91,65.26-10.16.16.06.49-.32.91-.6-22.69-61.37-20.08-121.8,7.61-181.02-.43-.28-.59-.47-.7-.44-.96.24-1.93.47-2.87.8-22.33,7.82-45.28,10.93-68.87,8.72-18.72-1.76-37.13-5.42-53.6-14.73-32.91-18.61-56.41-45.89-70.58-80.86-59.09-145.73-118-291.52-176.98-437.29-4.61-11.38-9.23-22.76-14.4-35.51Zm-5.15,880.04c-.5,1.38-.99,2.78-1.52,4.17-5.56,14.42-15.32,25.1-29.74,30.61-24.37,9.31-49.71,12.6-75.65,9.36-45.04-5.63-88.02-18.48-128.48-39.01-58.85-29.86-109.65-70.53-155.48-117.64-1.36-1.39-2.71-2.78-4.07-4.18.14,1.96.94,3.2,1.85,4.36,19.51,25.02,41.3,47.88,65.02,68.96,23.63,20.99,49.83,38.42,76.02,55.9,37.46,25.01,77.79,43.69,121.59,54.5,55.41,13.67,111.65,18.14,168.63,15.18,49.95-2.59,97.82-13.55,143.97-32.75,42.17-17.55,80.31-41.68,116.65-69.02,33.89-25.49,64.01-54.73,89.92-88.29,1.26-1.63,2.49-3.28,3.74-4.92-4.51,3.34-8.16,7.34-11.9,11.25-3.91,4.1-7.82,8.2-11.86,12.16-50.37,49.37-108.42,86.84-173.98,113.01-43.92,17.53-88.91,24.94-136.04,18.48-17.95-2.46-34.18-7.99-45.92-22.41-4.85-5.96-8.43-12.95-12.74-19.71Z"/>
    <path class="cls-2" d="m406.73,0c5.17,12.75,9.79,24.12,14.4,35.51,58.98,145.77,117.89,291.57,176.98,437.29,14.18,34.96,37.67,62.25,70.58,80.86,16.47,9.31,34.88,12.97,53.6,14.73,23.58,2.21,46.54-.89,68.87-8.72.94-.33,1.91-.56,2.87-.8.11-.03.27.16.7.44-27.69,59.22-30.3,119.65-7.61,181.02-.41.28-.74.66-.91.6-23.64-8.75-45.05-1.77-65.26,10.16-8.35,4.93-16.28,11.25-22.84,18.37-16.73,18.19-37.28,31.15-57.91,43.97-57.26,35.61-119.3,58.85-185.79,70.18-1.56.27-3.14.38-3.69.45,16.46-5.57,34.06-10.69,51.01-17.45,24.45-9.75,48.53-20.5,69.18-37.4,15.99-13.08,30.78-27.62,39.8-46.24,15.25-31.48,15.3-63.98,1.88-96.29-12.89-31.04-26.22-61.9-39.16-92.93-60.25-144.53-120.44-289.1-180.65-433.65-.68-1.63-1.47-3.22-2.59-5.66-.97,2.28-1.66,3.73-2.21,5.23-41.66,113.74-83.31,227.5-124.98,341.24-19,51.87-37.93,103.77-57.17,155.55-5.56,14.96-12.26,29.44-14.96,45.39-7.51,44.41,6.16,81.96,36.09,114.58,17.88,19.49,40.33,32.19,64.18,42.31,21.73,9.22,44.16,16.8,66.29,25.09,1.38.52,2.8.96,4.2,1.43-.12.49-.23.97-.35,1.46-19.19-4.3-38.53-8.02-57.53-13.03-36.07-9.51-70.13-24.09-103.2-41.34-22.36-11.66-44.6-23.32-64.05-39.53-13.04-10.87-25.49-22.47-38.77-33.03-8.04-6.39-16.74-12.23-25.89-16.87-14.9-7.55-28.8-7.51-51.03-1.64,22.37-61.38,20.74-121.82-5.19-182.69,2.33,1.22,3.81,1.96,5.26,2.75,26.87,14.7,55.45,21.54,86.11,18.19,13.6-1.48,25.37-7.81,36.7-14.97,28.78-18.19,49.59-43.12,62.47-74.58,50.31-122.89,100.56-245.81,150.83-368.71,15.62-38.2,31.25-76.39,46.87-114.59.75-1.83,1.55-3.65,2.85-6.71Z"/>
    <path class="cls-2" d="m401.58,880.04c4.31,6.76,7.89,13.75,12.74,19.71,11.74,14.42,27.96,19.95,45.92,22.41,47.13,6.46,92.12-.95,136.04-18.48,65.56-26.17,123.61-63.64,173.98-113.01,4.04-3.96,7.95-8.06,11.86-12.16,3.74-3.92,7.39-7.92,11.9-11.25-1.24,1.64-2.48,3.29-3.74,4.92-25.91,33.56-56.03,62.8-89.92,88.29-36.34,27.34-74.48,51.47-116.65,69.02-46.15,19.2-94.02,30.16-143.97,32.75-56.98,2.96-113.22-1.51-168.63-15.18-43.79-10.81-84.13-29.49-121.59-54.5-26.19-17.48-52.39-34.91-76.02-55.9-23.73-21.08-45.52-43.93-65.02-68.96-.9-1.16-1.71-2.4-1.85-4.36,1.36,1.39,2.71,2.78,4.07,4.18,45.83,47.12,96.62,87.79,155.48,117.64,40.46,20.52,83.43,33.38,128.48,39.01,25.95,3.24,51.29-.05,75.65-9.36,14.42-5.51,24.18-16.18,29.74-30.61.53-1.38,1.02-2.79,1.52-4.17Z"/>
  </g>
  <g id="Calque_2" data-name="Calque 2">
    <g>
      <path class="cls-1" d="m202.88,579.68s62.88,52.39,141.78-43.77c0,0,45.68-90.85,90.17-104.12,0,0-94.91,101.46-17.2,194.97l4.75,7.29s-29.66-5.97-107.37,19.9c0,0-70.52,17.24-112.12-74.27Z"/>
      <path class="cls-1" d="m554.66,427.81s-37.62-14.02-70.59,6.63c-47.88,29.98-88.01,117.78-10.68,180.38,16.1,13.04,33.91,16.58,63.47,16.58,0,0-45.68,31.17-99.07-5.31-53.39-36.47-37.37-118.71-37.37-118.71,0,0,23.14-61.67,47.46-75.6,24.32-13.93,40.34-22.55,81.27-18.57,0,0,13.64,0,25.51,14.59Z"/>
      <path class="cls-1" d="m476.41,655.25s24.85.7,62.82-15.22c37.97-15.92,53.98-17.24,64.66-13.26,0,0-31.44,7.96-43.9,19.9-12.46,11.94-52.68,19.16-83.58,8.59Z"/>
      <path class="cls-1" d="m461.52,575.7s-2.97-19.9,21.95-41.12c24.92-21.22,42.12-6.55,42.12-6.55,0,0-7.12-15.1-39.15-4.94,0,0,46.27-21.67,74.75,11.49,0,0,17.2,14.59,17.8,41.12,0,0,24.32-71.62-21.95-108.1,0,0-73.56-49.07-107.97,11.27,0,0-27.88,64.33,12.46,96.82Z"/>
    </g>
  </g>
</svg>