<?xml version="1.0" encoding="UTF-8"?>
<svg id="Calque_2" data-name="Calque 2" xmlns="http://www.w3.org/2000/svg" viewBox="0 0 216.07 36.18">
  <defs>
    <style>
      .cls-1 {
        fill: #f6a344;
        stroke-width: .5px;
      }

      .cls-1, .cls-2 {
        stroke: #e94c46;
        stroke-miterlimit: 10;
      }

      .cls-3 {
        fill: #602b2b;
      }

      .cls-3, .cls-4 {
        stroke-width: 0px;
      }

      .cls-4 {
        fill: #f8aa12;
      }

      .cls-2 {
        fill: #d4840d;
        stroke-width: .25px;
      }
    </style>
  </defs>
  <g id="Calque_3" data-name="Calque 3">
    <g>
      <g>
        <path class="cls-2" d="m75.87,7.83l-.32.13-.24-.07-.69-.1-.96-.12h-1.11l-1.35.08-1.45.2-1.3.03-1.15.24-.93.17-1.01.32-.76.2-.72.17-.24.29-.46.27-.59.32-.69.2-.93.13-.93.03-.83-.27-.49-.32-.49-.34-.44-.39-.07-.47.07-.56.3-.42.29-.27.44-.13.69-.35.66-.17,1.04-.1h1.13l1.45.1h1.45l1.55-.1,1.28-.03.56-.1.72.07.79-.13.86.17.79-.03.72.07,1.38.17h.66l1.11.56.17.3v.25Zm-13.11-3.66l-.22.27-.27-.27.17-.35.32.1v.25Zm4.25,6.45l-.19.3-.13.69v.62l-.1.79v.69l-.07.56-.13.47.13.39-.24.44-.05.59v.52l-.13.66-.07.76-.07.59.07.69-.13.79-.03.76v.62l.03.79.07.86-.07.83v.89l-.1.78.07.72v.79l.03.72-.03.72-.24.24-.07-.17-.08-.32.08-.54.03-.66-.15-.39.03-.66-.1-.37-.1-.52v-1.72l-.13-.56v-.62l-.07-.66v-.79l-.07-.66v-.69l.07-.69v-.93l-.07-.94v-1.48l-.03-.54.13-.52v-.66l-.03-.83-.29-.79-.17-.72-.27-.56-.07-.56v-.47l.24-.39.42-.42.54-.07.42.15.49.4.37.46.25.59Z"/>
        <path class="cls-2" d="m82.12,23.73l-.07.59-.12.54-.24.42-.17.46-.29.47-.4.29-.27.4-.56.29-.56.2-.66.07-.66.1-.62.07-.66-.13-.54-.1-.52-.2-.42-.18-.44-.4-.39-.46-.4-.24-.29-.46-.2-.47-.24-.45-.03-.52-.05-.66.08-.47.17-.66v-.66l.2-.66.35-1.04.37-.34.07-.39.35-.27.44-.3.42-.25.62-.13.4.07.35.2.2.39.07.34-.03.46-.27.35-.32.4-.2.46-.03.44-.34.32-.19.62-.17.4-.03.62v.52l.1.56.24.44.29.35.37.27.35.35.44.13.56.03.07.1.62-.03.56-.1.62-.42.37-.37.29-.56.1-.52v-.69l-.17-.4-.29-.52-.3-.42-.39-.37-.4-.32-.32-.24-.24-.2-.07-.35.13-.24h.32l.3.2.42.17.27.22.56.37.37.29.25.37.3.46.27.4.15.39.1.62Zm-3.45-3.76l-.2.07-.22-.18.13-.13.22.03.07.22Z"/>
        <path class="cls-2" d="m94.64,26.97l-.17.29-.22.13-.27.03-.24-.07-.15-.17-.27-.32-.34-.27-.25-.25-.44-.96-.07-.4-.12-.35-.1-.27h-.13l-.17.2-.2.34-.12.32-.1.34-.17.35-.2.3-.25.29-.27.37-.46.25-.34.17-.66.17-.52.03-.4-.07-.45-.24-.56-.15-.37-.3-.46-.24-.27-.29-.39-.34-.13-.52-.2-.56-.13-.54-.15-.66-.13-.39.1-.52-.17-.62-.03-.34-.03-.52-.07-.44-.07-.32.03-.44.1-.35.34-.37.46-.19.35-.03.44.07.42.22.3.24.29.42.17.37.13.52-.07.37-.24.32-.22.37-.03.49-.17.56v.47l.03.66.17.69.25.32.27.44.49.35.47.24.59.17.46-.17.44-.24.35-.35.34-.54.25-.45.2-.46.17-.47.13-.62.08-.72-.15-.62-.1-.56-.1-.24.07-.46-.03-.44.07-.35.1-.3.07-.46.18-.27.2-.13.3.1.15.27.03.24.13.35-.03.34v.52l-.13.52v.24l-.15.2.08.42.07.49.17.44.03.69.17.45.13.59.07.47.19.52.2.39.27.34.29.3.76.35.1.24Zm-5.8-4.38l-.07.79-.49.49-.4-.39-.29-.57.03-.62-.17-.35.2-.2.35.03.34.2.49.62Z"/>
        <path class="cls-2" d="m104.61,18.41l-.18.32-.2.27-.13.49.03.69v.76l.1.79v1.03l.13.98-.07.86.07.99-.07.79.07.77-.13.47.07.62-.07.86-.1.76-.07.94-.17.62-.18.57-.3.79-.39.91-.37.66-.76.76-.45.34-.72.29-.72.24-.96.07-.86-.07-.72-.07-.66-.29-.52-.2-.46-.42-.3-.37-.17-.49v-.4l.26-.07.23.17.25.24.3.42.42.27.47.35.59.07.83.24.88-.1.73-.17.54-.29.59-.47.39-.56.41-.66.25-.62.34-.76.1-.79.1-.96.07-.94v-.62l-.07-.61-.03-.42.03-.93-.69.44-.83.25-.96.13-.76-.13-.79-.22-.83-.47-.49-.35-.56-.3-.34-.56-.32-.52.1-.62-.17-.37-.27-.72v-.24l.03-1.04.24-.86.2-.62.59-.45.39-.51.1-.66.49-.32.3-.2.2-.34,1.38-.25.89.13.56.08.49.17.34.24.32.2.34-.03.32-.27.13-.3.45-.08.4.12.24.27.08.3Zm-6.6,9.84l-.03.32-.27.2h-.52l-.24-.35.49-.17.27-.24.3.24Zm4.9-3.32l-.1-.57v-.62l.03-.66-.07-1.28-.1-.72-.17-.46-.35-.34-.44.1-.49.29-.49.3-.52.49-.73.3-.83,1.28-.03.69-.1.56.24.47.42.39.46.66.8.44.63.13.8-.03.8-.13.2-.62.07-.66Z"/>
        <path class="cls-2" d="m115.51,27.46l-.03.24-.23.25h-.25l-.27-.29-.13-.44-.22-.35-.13-.49-.13-.13-.2.1-.29.19-.3.37-.49.29-.3.3-.52.27-.59.22-.51.17-.46.13-.34.13-.35-.1-.49-.07-.57-.24-.52-.32-.32-.4-.24-.45-.03-.72v-.49l.1-.54.32-.56.3-.52.42-.37.44-.32.59-.1.52-.07.59-.13.51-.32.66-.34.32-.13.34-.1.13-.35-.27-.49-.32-.44-.67-.62-.69-.2-.56-.03-.2.03h-.35l-.42.2-.37.24-.45.07h-.51l-.59.15h-.52l-.42-.22-.3-.3-.03-.42.1-.37.35-.42.37-.49.46-.37.5-.27.56-.45.52-.24.96-.19.83-.07.59.17.49.25.52.17.59.39.3.3.3.49.22.62.17.61.23.81.22.61.03.52-.03.66.17.76.1.79.3,1.38.19.52.17.47.13.59.03.49Zm-2.34-3.59l-.13-.2-.49-.13-.42.03-.37.17-.42.13-.44.24-.42.07-.37.19-.32.24-.2.3-.25.39-.07.34-.13.32v.4l.17.35.45.13h.49l.54-.13.25-.27.34-.08.79-.54.39-.25.27-.44.29-.35.03-.47.03-.42Zm.89,3.49l-.13.1-.28-.1.08-.2.2-.12.13.32Zm1.35-2.9l-.2.13-.18-.07v-.2l.32-.15.07.29Z"/>
        <path class="cls-2" d="m126.43,23.73l-.07.59-.12.54-.23.42-.17.46-.29.47-.4.29-.27.4-.56.29-.56.2-.66.07-.66.1-.62.07-.66-.13-.54-.1-.52-.2-.42-.18-.44-.4-.39-.46-.4-.24-.29-.46-.2-.47-.23-.45-.03-.52-.05-.66.08-.47.17-.66v-.66l.2-.66.35-1.04.37-.34.07-.39.35-.27.44-.3.42-.25.62-.13.4.07.35.2.2.39.07.34-.03.46-.27.35-.32.4-.2.46-.03.44-.34.32-.18.62-.17.4-.03.62v.52l.1.56.24.44.29.35.37.27.35.35.44.13.56.03.07.1.62-.03.56-.1.62-.42.37-.37.29-.56.1-.52v-.69l-.17-.4-.29-.52-.3-.42-.39-.37-.4-.32-.32-.24-.24-.2-.07-.35.13-.24h.32l.3.2.42.17.27.22.56.37.37.29.25.37.3.46.27.4.15.39.1.62Zm-3.45-3.76l-.2.07-.22-.18.13-.13.22.03.07.22Z"/>
        <path class="cls-2" d="m138.95,26.97l-.17.29-.22.13-.27.03-.24-.07-.15-.17-.27-.32-.34-.27-.25-.25-.44-.96-.07-.4-.12-.35-.1-.27h-.13l-.17.2-.2.34-.12.32-.1.34-.17.35-.2.3-.25.29-.27.37-.45.25-.34.17-.66.17-.52.03-.4-.07-.45-.24-.56-.15-.37-.3-.45-.24-.27-.29-.39-.34-.13-.52-.2-.56-.13-.54-.15-.66-.13-.39.1-.52-.17-.62-.03-.34-.03-.52-.07-.44-.07-.32.03-.44.1-.35.34-.37.46-.19.35-.03.44.07.42.22.3.24.29.42.17.37.13.52-.07.37-.24.32-.22.37-.03.49-.17.56v.47l.03.66.17.69.25.32.27.44.49.35.47.24.59.17.45-.17.44-.24.35-.35.34-.54.25-.45.2-.46.17-.47.13-.62.08-.72-.15-.62-.1-.56-.1-.24.07-.46-.03-.44.07-.35.1-.3.07-.46.18-.27.2-.13.3.1.15.27.03.24.13.35-.03.34v.52l-.13.52v.24l-.15.2.08.42.07.49.17.44.03.69.17.45.13.59.07.47.19.52.2.39.27.34.29.3.76.35.1.24Zm-5.8-4.38l-.07.79-.49.49-.4-.39-.29-.57.03-.62-.17-.35.2-.2.35.03.34.2.49.62Z"/>
        <path class="cls-2" d="m148.92,18.41l-.19.32-.2.27-.13.49.03.69v.76l.1.79v1.03l.13.98-.07.86.07.99-.07.79.07.77-.13.47.07.62-.07.86-.1.76-.07.94-.17.62-.19.57-.3.79-.39.91-.37.66-.76.76-.45.34-.72.29-.73.24-.96.07-.86-.07-.72-.07-.66-.29-.52-.2-.45-.42-.3-.37-.17-.49v-.4l.26-.07.23.17.25.24.3.42.42.27.47.35.59.07.83.24.88-.1.73-.17.54-.29.59-.47.39-.56.4-.66.25-.62.34-.76.1-.79.1-.96.07-.94v-.62l-.07-.61-.03-.42.03-.93-.69.44-.83.25-.96.13-.76-.13-.79-.22-.83-.47-.49-.35-.56-.3-.34-.56-.32-.52.1-.62-.17-.37-.27-.72v-.24l.03-1.04.24-.86.2-.62.59-.45.39-.51.1-.66.49-.32.3-.2.2-.34,1.38-.25.89.13.56.08.49.17.34.24.32.2.34-.03.32-.27.13-.3.46-.08.4.12.23.27.08.3Zm-6.6,9.84l-.03.32-.27.2h-.52l-.24-.35.49-.17.27-.24.3.24Zm4.9-3.32l-.1-.57v-.62l.03-.66-.07-1.28-.1-.72-.17-.46-.35-.34-.44.1-.49.29-.49.3-.52.49-.73.3-.83,1.28-.03.69-.1.56.24.47.42.39.46.66.8.44.63.13.8-.03.79-.13.2-.62.07-.66Z"/>
        <path class="cls-2" d="m172.24,29.33l-.1.51v.32l-.13.24-.22.17-.3-.1-.29-.44-.07-.49-.24-.24-.03-.62-.27-.91-.39-.61-.34-.72-.19-.62-.3-.91-.07-.72-.39-.54-.4-.35-.52.29-.49.3-1.42.3-.54-.07-.62-.03-1.21-.44-.79-.35-.07-.3-.62-.29-.13-.4-.29-.29-.24-.66-.1-.57-.03-.62-.03-.98.03-1.03.2-.86-.07-.49-.13-.83-.03-.96.07-.91.3-.69.46-.96.45-.79.4-.49.25-.47.67-.72.45-.62.49-.49.47-.52.49-.27.66.07.59-.27,1.13-.1.49-.39.89-.3.73.13.49.24.42.42.2.44.24.32.07.47-.03.25-.17.24-.45.35-.51.2h-.91l-.54-.17-.62-.19-.66.19-.86.44-.69.49-.76.52-.15.4-.51.35-.45.62-.52.76-.34.54-.3.84-.32.79-.1.89v.72l-.17.79-.19,1.03-.07.88.25,1.03.44.72.49.49.69.24.86.39.96.17.69-.1h.35l.27-.22.52-.57.39-.52v-1.15l.1-.72.1-.83.2-.76.24-.37-.1-.76.1-.32.19-.24.2-.25.27-.13.52.03.56.35.2.66.17.86.12.72.24.59.27.76v.89l.03.79-.13.83v.98l-.03.83v1.13l.03.94.24,1.03.08.99.07.49.17.32Z"/>
        <path class="cls-2" d="m182.05,19.59l-.23.07-.32-.03h-.3l-.45.07-.56.32-.27.37-.56.24-.24.29-.46.4-.2.42-.13.39v.51l-.13.39-.15.4-.13.45-.03.49v1.1l-.03.49-.13.49-.03.47-.07.52v.49l-.25.51-.3.29-.45.13-.3.07-.27-.07-.25-.27-.13-.32-.13-.34.03-.39-.03-.56v-.79l-.03-.37.03-.42.03-.56v-.47l.07-.56.03-.56-.03-.62v-.51l-.07-.42-.03-.39-.29-.47-.24-.39-.13-.4-.03-.45.07-.42.17-.3.29-.2.47-.17.52-.25.45.07.57.25.07.34.25.46v.69l.2.2.2.03.29-.07.34-.27.46-.29.52-.24.44-.25.52-.07.56-.13h.3l.42.13.13.25v.24Z"/>
        <path class="cls-2" d="m193.02,21.31l-.3.46-.49.27-.59.25-.72.24-.79.07-.72.17-.51.25-.59.2-.49.13-.79.03-.62-.07-.42.03-.37.13-.17.39.07.72.2.39.39.47.72.79.37.35.73.37.39.18.47.2h.56l.52-.13.44-.07.49-.18.49-.1h.3l.03.13-.17.18-.3.2-.52.27-.56.29-.52.2-.51.13-.76-.03-.76-.17-.62-.32-.72-.47-.66-.56-.45-.3-.34-.32-.29-.4-.2-.15-.42-1.03-.37-.89-.23-.72-.08-.56.05-.62.13-.66.13-.56.17-.37.17-.42.15-.2.3-.27.23-.03.42-.59.49-.42.51-.27.62-.1h.79l.66-.03.89.1.72.2,2.01.99.52.32.49.44.27.35.17.59v.51Zm-3.2-.98l-.29-.31-.44-.22-.49-.2-.56-.07h-.54l-.49.14-.49.2-.44.32-.25.14-.27.31.1.22.24-.03.39.03h.66l.56.13h.57l.62-.03.56-.14.49-.14.07-.36Zm1.48,6.11l-.2.17-.19-.17.1-.22h.25l.03.22Z"/>
        <path class="cls-2" d="m204.81,21.31l-.3.46-.49.27-.59.25-.72.24-.79.07-.72.17-.51.25-.59.2-.49.13-.79.03-.62-.07-.42.03-.37.13-.17.39.07.72.2.39.39.47.72.79.37.35.73.37.39.18.47.2h.56l.52-.13.44-.07.49-.18.49-.1h.3l.03.13-.17.18-.3.2-.52.27-.56.29-.52.2-.51.13-.76-.03-.76-.17-.62-.32-.72-.47-.66-.56-.45-.3-.34-.32-.29-.4-.2-.15-.42-1.03-.37-.89-.23-.72-.08-.56.05-.62.13-.66.13-.56.17-.37.17-.42.15-.2.3-.27.23-.03.42-.59.49-.42.51-.27.62-.1h.79l.66-.03.89.1.72.2,2.01.99.52.32.49.44.27.35.17.59v.51Zm-3.2-.98l-.29-.31-.44-.22-.49-.2-.56-.07h-.54l-.49.14-.49.2-.44.32-.25.14-.27.31.1.22.24-.03.39.03h.66l.56.13h.57l.62-.03.56-.14.49-.14.07-.36Zm1.48,6.11l-.2.17-.19-.17.1-.22h.25l.03.22Z"/>
        <path class="cls-2" d="m215.95,26.94l-.13.19-.17.13-.35-.03-.3-.29-.1-.3-.03-.46v-.37l-.13-.49-.03-.49v-.44l-.15-.46-.03-.52-.27-.83-.07-1.25-.29-.86-.4-.37-.49-.22-.2-.27-.35-.17-.54.17-.39.13-.34.39-.35.4-.44.62-.18.42-.1.37-.07.35-.27.37-.32.39-.13.56-.03.62v.61l-.07.76-.03.69v.62l.03.59.13.52.1.44.03.42-.17.2-.14.19-.32.07h-.31l-.2-.15-.17-.2-.19-.59-.1-.47-.14-.98v-.37l-.07-.42-.07-.56v-.64l-.07-.59v-.46l-.03-.45-.12-.51v-.62l-.03-.56v-2.14l-.13-.4-.2-.32-.13-.27-.13-.35-.05-.4.05-.32.17-.3.2-.2.39-.29.47-.03.49.03.37.24.35.25.37.37.18.25.13.4.37.19.35-.12.49-.07.47-.13.45-.13.59-.07.47-.07.49.17.24.27.22.49.17.34.07.49.17.32.25.4.17.56.03.49.03.54.1.52.03.52.13.47.03.45v.49l.07.47.19.49.07.49.27.37.13.39v.3Zm-1.55.49l-.13.2-.17.07-.13-.27.27-.27.17.27Z"/>
      </g>
      <g>
        <path class="cls-2" d="m75.87,7.83l-.32.13-.24-.07-.69-.1-.96-.12h-1.11l-1.35.08-1.45.2-1.3.03-1.15.24-.93.17-1.01.32-.76.2-.72.17-.24.29-.46.27-.59.32-.69.2-.93.13-.93.03-.83-.27-.49-.32-.49-.34-.44-.39-.07-.47.07-.56.3-.42.29-.27.44-.13.69-.35.66-.17,1.04-.1h1.13l1.45.1h1.45l1.55-.1,1.28-.03.56-.1.72.07.79-.13.86.17.79-.03.72.07,1.38.17h.66l1.11.56.17.3v.25Zm-13.11-3.66l-.22.27-.27-.27.17-.35.32.1v.25Zm4.25,6.45l-.19.3-.13.69v.62l-.1.79v.69l-.07.56-.13.47.13.39-.24.44-.05.59v.52l-.13.66-.07.76-.07.59.07.69-.13.79-.03.76v.62l.03.79.07.86-.07.83v.89l-.1.78.07.72v.79l.03.72-.03.72-.24.24-.07-.17-.08-.32.08-.54.03-.66-.15-.39.03-.66-.1-.37-.1-.52v-1.72l-.13-.56v-.62l-.07-.66v-.79l-.07-.66v-.69l.07-.69v-.93l-.07-.94v-1.48l-.03-.54.13-.52v-.66l-.03-.83-.29-.79-.17-.72-.27-.56-.07-.56v-.47l.24-.39.42-.42.54-.07.42.15.49.4.37.46.25.59Z"/>
        <path class="cls-2" d="m82.12,23.73l-.07.59-.12.54-.24.42-.17.46-.29.47-.4.29-.27.4-.56.29-.56.2-.66.07-.66.1-.62.07-.66-.13-.54-.1-.52-.2-.42-.18-.44-.4-.39-.46-.4-.24-.29-.46-.2-.47-.24-.45-.03-.52-.05-.66.08-.47.17-.66v-.66l.2-.66.35-1.04.37-.34.07-.39.35-.27.44-.3.42-.25.62-.13.4.07.35.2.2.39.07.34-.03.46-.27.35-.32.4-.2.46-.03.44-.34.32-.19.62-.17.4-.03.62v.52l.1.56.24.44.29.35.37.27.35.35.44.13.56.03.07.1.62-.03.56-.1.62-.42.37-.37.29-.56.1-.52v-.69l-.17-.4-.29-.52-.3-.42-.39-.37-.4-.32-.32-.24-.24-.2-.07-.35.13-.24h.32l.3.2.42.17.27.22.56.37.37.29.25.37.3.46.27.4.15.39.1.62Zm-3.45-3.76l-.2.07-.22-.18.13-.13.22.03.07.22Z"/>
        <path class="cls-2" d="m94.64,26.97l-.17.29-.22.13-.27.03-.24-.07-.15-.17-.27-.32-.34-.27-.25-.25-.44-.96-.07-.4-.12-.35-.1-.27h-.13l-.17.2-.2.34-.12.32-.1.34-.17.35-.2.3-.25.29-.27.37-.46.25-.34.17-.66.17-.52.03-.4-.07-.45-.24-.56-.15-.37-.3-.46-.24-.27-.29-.39-.34-.13-.52-.2-.56-.13-.54-.15-.66-.13-.39.1-.52-.17-.62-.03-.34-.03-.52-.07-.44-.07-.32.03-.44.1-.35.34-.37.46-.19.35-.03.44.07.42.22.3.24.29.42.17.37.13.52-.07.37-.24.32-.22.37-.03.49-.17.56v.47l.03.66.17.69.25.32.27.44.49.35.47.24.59.17.46-.17.44-.24.35-.35.34-.54.25-.45.2-.46.17-.47.13-.62.08-.72-.15-.62-.1-.56-.1-.24.07-.46-.03-.44.07-.35.1-.3.07-.46.18-.27.2-.13.3.1.15.27.03.24.13.35-.03.34v.52l-.13.52v.24l-.15.2.08.42.07.49.17.44.03.69.17.45.13.59.07.47.19.52.2.39.27.34.29.3.76.35.1.24Zm-5.8-4.38l-.07.79-.49.49-.4-.39-.29-.57.03-.62-.17-.35.2-.2.35.03.34.2.49.62Z"/>
        <path class="cls-2" d="m104.61,18.41l-.18.32-.2.27-.13.49.03.69v.76l.1.79v1.03l.13.98-.07.86.07.99-.07.79.07.77-.13.47.07.62-.07.86-.1.76-.07.94-.17.62-.18.57-.3.79-.39.91-.37.66-.76.76-.45.34-.72.29-.72.24-.96.07-.86-.07-.72-.07-.66-.29-.52-.2-.46-.42-.3-.37-.17-.49v-.4l.26-.07.23.17.25.24.3.42.42.27.47.35.59.07.83.24.88-.1.73-.17.54-.29.59-.47.39-.56.41-.66.25-.62.34-.76.1-.79.1-.96.07-.94v-.62l-.07-.61-.03-.42.03-.93-.69.44-.83.25-.96.13-.76-.13-.79-.22-.83-.47-.49-.35-.56-.3-.34-.56-.32-.52.1-.62-.17-.37-.27-.72v-.24l.03-1.04.24-.86.2-.62.59-.45.39-.51.1-.66.49-.32.3-.2.2-.34,1.38-.25.89.13.56.08.49.17.34.24.32.2.34-.03.32-.27.13-.3.45-.08.4.12.24.27.08.3Zm-6.6,9.84l-.03.32-.27.2h-.52l-.24-.35.49-.17.27-.24.3.24Zm4.9-3.32l-.1-.57v-.62l.03-.66-.07-1.28-.1-.72-.17-.46-.35-.34-.44.1-.49.29-.49.3-.52.49-.73.3-.83,1.28-.03.69-.1.56.24.47.42.39.46.66.8.44.63.13.8-.03.8-.13.2-.62.07-.66Z"/>
        <path class="cls-2" d="m115.51,27.46l-.03.24-.23.25h-.25l-.27-.29-.13-.44-.22-.35-.13-.49-.13-.13-.2.1-.29.19-.3.37-.49.29-.3.3-.52.27-.59.22-.51.17-.46.13-.34.13-.35-.1-.49-.07-.57-.24-.52-.32-.32-.4-.24-.45-.03-.72v-.49l.1-.54.32-.56.3-.52.42-.37.44-.32.59-.1.52-.07.59-.13.51-.32.66-.34.32-.13.34-.1.13-.35-.27-.49-.32-.44-.67-.62-.69-.2-.56-.03-.2.03h-.35l-.42.2-.37.24-.45.07h-.51l-.59.15h-.52l-.42-.22-.3-.3-.03-.42.1-.37.35-.42.37-.49.46-.37.5-.27.56-.45.52-.24.96-.19.83-.07.59.17.49.25.52.17.59.39.3.3.3.49.22.62.17.61.23.81.22.61.03.52-.03.66.17.76.1.79.3,1.38.19.52.17.47.13.59.03.49Zm-2.34-3.59l-.13-.2-.49-.13-.42.03-.37.17-.42.13-.44.24-.42.07-.37.19-.32.24-.2.3-.25.39-.07.34-.13.32v.4l.17.35.45.13h.49l.54-.13.25-.27.34-.08.79-.54.39-.25.27-.44.29-.35.03-.47.03-.42Zm.89,3.49l-.13.1-.28-.1.08-.2.2-.12.13.32Zm1.35-2.9l-.2.13-.18-.07v-.2l.32-.15.07.29Z"/>
        <path class="cls-2" d="m126.43,23.73l-.07.59-.12.54-.23.42-.17.46-.29.47-.4.29-.27.4-.56.29-.56.2-.66.07-.66.1-.62.07-.66-.13-.54-.1-.52-.2-.42-.18-.44-.4-.39-.46-.4-.24-.29-.46-.2-.47-.23-.45-.03-.52-.05-.66.08-.47.17-.66v-.66l.2-.66.35-1.04.37-.34.07-.39.35-.27.44-.3.42-.25.62-.13.4.07.35.2.2.39.07.34-.03.46-.27.35-.32.4-.2.46-.03.44-.34.32-.18.62-.17.4-.03.62v.52l.1.56.24.44.29.35.37.27.35.35.44.13.56.03.07.1.62-.03.56-.1.62-.42.37-.37.29-.56.1-.52v-.69l-.17-.4-.29-.52-.3-.42-.39-.37-.4-.32-.32-.24-.24-.2-.07-.35.13-.24h.32l.3.2.42.17.27.22.56.37.37.29.25.37.3.46.27.4.15.39.1.62Zm-3.45-3.76l-.2.07-.22-.18.13-.13.22.03.07.22Z"/>
        <path class="cls-2" d="m138.95,26.97l-.17.29-.22.13-.27.03-.24-.07-.15-.17-.27-.32-.34-.27-.25-.25-.44-.96-.07-.4-.12-.35-.1-.27h-.13l-.17.2-.2.34-.12.32-.1.34-.17.35-.2.3-.25.29-.27.37-.45.25-.34.17-.66.17-.52.03-.4-.07-.45-.24-.56-.15-.37-.3-.45-.24-.27-.29-.39-.34-.13-.52-.2-.56-.13-.54-.15-.66-.13-.39.1-.52-.17-.62-.03-.34-.03-.52-.07-.44-.07-.32.03-.44.1-.35.34-.37.46-.19.35-.03.44.07.42.22.3.24.29.42.17.37.13.52-.07.37-.24.32-.22.37-.03.49-.17.56v.47l.03.66.17.69.25.32.27.44.49.35.47.24.59.17.45-.17.44-.24.35-.35.34-.54.25-.45.2-.46.17-.47.13-.62.08-.72-.15-.62-.1-.56-.1-.24.07-.46-.03-.44.07-.35.1-.3.07-.46.18-.27.2-.13.3.1.15.27.03.24.13.35-.03.34v.52l-.13.52v.24l-.15.2.08.42.07.49.17.44.03.69.17.45.13.59.07.47.19.52.2.39.27.34.29.3.76.35.1.24Zm-5.8-4.38l-.07.79-.49.49-.4-.39-.29-.57.03-.62-.17-.35.2-.2.35.03.34.2.49.62Z"/>
        <path class="cls-2" d="m148.92,18.41l-.19.32-.2.27-.13.49.03.69v.76l.1.79v1.03l.13.98-.07.86.07.99-.07.79.07.77-.13.47.07.62-.07.86-.1.76-.07.94-.17.62-.19.57-.3.79-.39.91-.37.66-.76.76-.45.34-.72.29-.73.24-.96.07-.86-.07-.72-.07-.66-.29-.52-.2-.45-.42-.3-.37-.17-.49v-.4l.26-.07.23.17.25.24.3.42.42.27.47.35.59.07.83.24.88-.1.73-.17.54-.29.59-.47.39-.56.4-.66.25-.62.34-.76.1-.79.1-.96.07-.94v-.62l-.07-.61-.03-.42.03-.93-.69.44-.83.25-.96.13-.76-.13-.79-.22-.83-.47-.49-.35-.56-.3-.34-.56-.32-.52.1-.62-.17-.37-.27-.72v-.24l.03-1.04.24-.86.2-.62.59-.45.39-.51.1-.66.49-.32.3-.2.2-.34,1.38-.25.89.13.56.08.49.17.34.24.32.2.34-.03.32-.27.13-.3.46-.08.4.12.23.27.08.3Zm-6.6,9.84l-.03.32-.27.2h-.52l-.24-.35.49-.17.27-.24.3.24Zm4.9-3.32l-.1-.57v-.62l.03-.66-.07-1.28-.1-.72-.17-.46-.35-.34-.44.1-.49.29-.49.3-.52.49-.73.3-.83,1.28-.03.69-.1.56.24.47.42.39.46.66.8.44.63.13.8-.03.79-.13.2-.62.07-.66Z"/>
        <path class="cls-2" d="m172.24,29.33l-.1.51v.32l-.13.24-.22.17-.3-.1-.29-.44-.07-.49-.24-.24-.03-.62-.27-.91-.39-.61-.34-.72-.19-.62-.3-.91-.07-.72-.39-.54-.4-.35-.52.29-.49.3-1.42.3-.54-.07-.62-.03-1.21-.44-.79-.35-.07-.3-.62-.29-.13-.4-.29-.29-.24-.66-.1-.57-.03-.62-.03-.98.03-1.03.2-.86-.07-.49-.13-.83-.03-.96.07-.91.3-.69.46-.96.45-.79.4-.49.25-.47.67-.72.45-.62.49-.49.47-.52.49-.27.66.07.59-.27,1.13-.1.49-.39.89-.3.73.13.49.24.42.42.2.44.24.32.07.47-.03.25-.17.24-.45.35-.51.2h-.91l-.54-.17-.62-.19-.66.19-.86.44-.69.49-.76.52-.15.4-.51.35-.45.62-.52.76-.34.54-.3.84-.32.79-.1.89v.72l-.17.79-.19,1.03-.07.88.25,1.03.44.72.49.49.69.24.86.39.96.17.69-.1h.35l.27-.22.52-.57.39-.52v-1.15l.1-.72.1-.83.2-.76.24-.37-.1-.76.1-.32.19-.24.2-.25.27-.13.52.03.56.35.2.66.17.86.12.72.24.59.27.76v.89l.03.79-.13.83v.98l-.03.83v1.13l.03.94.24,1.03.08.99.07.49.17.32Z"/>
        <path class="cls-2" d="m182.05,19.59l-.23.07-.32-.03h-.3l-.45.07-.56.32-.27.37-.56.24-.24.29-.46.4-.2.42-.13.39v.51l-.13.39-.15.4-.13.45-.03.49v1.1l-.03.49-.13.49-.03.47-.07.52v.49l-.25.51-.3.29-.45.13-.3.07-.27-.07-.25-.27-.13-.32-.13-.34.03-.39-.03-.56v-.79l-.03-.37.03-.42.03-.56v-.47l.07-.56.03-.56-.03-.62v-.51l-.07-.42-.03-.39-.29-.47-.24-.39-.13-.4-.03-.45.07-.42.17-.3.29-.2.47-.17.52-.25.45.07.57.25.07.34.25.46v.69l.2.2.2.03.29-.07.34-.27.46-.29.52-.24.44-.25.52-.07.56-.13h.3l.42.13.13.25v.24Z"/>
        <path class="cls-2" d="m193.02,21.31l-.3.46-.49.27-.59.25-.72.24-.79.07-.72.17-.51.25-.59.2-.49.13-.79.03-.62-.07-.42.03-.37.13-.17.39.07.72.2.39.39.47.72.79.37.35.73.37.39.18.47.2h.56l.52-.13.44-.07.49-.18.49-.1h.3l.03.13-.17.18-.3.2-.52.27-.56.29-.52.2-.51.13-.76-.03-.76-.17-.62-.32-.72-.47-.66-.56-.45-.3-.34-.32-.29-.4-.2-.15-.42-1.03-.37-.89-.23-.72-.08-.56.05-.62.13-.66.13-.56.17-.37.17-.42.15-.2.3-.27.23-.03.42-.59.49-.42.51-.27.62-.1h.79l.66-.03.89.1.72.2,2.01.99.52.32.49.44.27.35.17.59v.51Zm-3.2-.98l-.29-.31-.44-.22-.49-.2-.56-.07h-.54l-.49.14-.49.2-.44.32-.25.14-.27.31.1.22.24-.03.39.03h.66l.56.13h.57l.62-.03.56-.14.49-.14.07-.36Zm1.48,6.11l-.2.17-.19-.17.1-.22h.25l.03.22Z"/>
        <path class="cls-2" d="m204.81,21.31l-.3.46-.49.27-.59.25-.72.24-.79.07-.72.17-.51.25-.59.2-.49.13-.79.03-.62-.07-.42.03-.37.13-.17.39.07.72.2.39.39.47.72.79.37.35.73.37.39.18.47.2h.56l.52-.13.44-.07.49-.18.49-.1h.3l.03.13-.17.18-.3.2-.52.27-.56.29-.52.2-.51.13-.76-.03-.76-.17-.62-.32-.72-.47-.66-.56-.45-.3-.34-.32-.29-.4-.2-.15-.42-1.03-.37-.89-.23-.72-.08-.56.05-.62.13-.66.13-.56.17-.37.17-.42.15-.2.3-.27.23-.03.42-.59.49-.42.51-.27.62-.1h.79l.66-.03.89.1.72.2,2.01.99.52.32.49.44.27.35.17.59v.51Zm-3.2-.98l-.29-.31-.44-.22-.49-.2-.56-.07h-.54l-.49.14-.49.2-.44.32-.25.14-.27.31.1.22.24-.03.39.03h.66l.56.13h.57l.62-.03.56-.14.49-.14.07-.36Zm1.48,6.11l-.2.17-.19-.17.1-.22h.25l.03.22Z"/>
        <path class="cls-2" d="m215.95,26.94l-.13.19-.17.13-.35-.03-.3-.29-.1-.3-.03-.46v-.37l-.13-.49-.03-.49v-.44l-.15-.46-.03-.52-.27-.83-.07-1.25-.29-.86-.4-.37-.49-.22-.2-.27-.35-.17-.54.17-.39.13-.34.39-.35.4-.44.62-.18.42-.1.37-.07.35-.27.37-.32.39-.13.56-.03.62v.61l-.07.76-.03.69v.62l.03.59.13.52.1.44.03.42-.17.2-.14.19-.32.07h-.31l-.2-.15-.17-.2-.19-.59-.1-.47-.14-.98v-.37l-.07-.42-.07-.56v-.64l-.07-.59v-.46l-.03-.45-.12-.51v-.62l-.03-.56v-2.14l-.13-.4-.2-.32-.13-.27-.13-.35-.05-.4.05-.32.17-.3.2-.2.39-.29.47-.03.49.03.37.24.35.25.37.37.18.25.13.4.37.19.35-.12.49-.07.47-.13.45-.13.59-.07.47-.07.49.17.24.27.22.49.17.34.07.49.17.32.25.4.17.56.03.49.03.54.1.52.03.52.13.47.03.45v.49l.07.47.19.49.07.49.27.37.13.39v.3Zm-1.55.49l-.13.2-.17.07-.13-.27.27-.27.17.27Z"/>
      </g>
      <g>
        <g>
          <path class="cls-3" d="m22.76,30.57s.89-.52,2.44-.85c1.77-.38,4.31-.56,5.91-.54,0,0,.35-4.32.29-4.55,0,0,.37-3.9-3.02-5.93-3.43-2.26-4.58-3.15-5.55-4.03,0,0-2.1-2.42-2.11-5.1-.01-2.67.12-6.78.12-6.78l.28,5.65s.26,3.95,2.08,5.4c1.82,1.45,1.28,1.1,2.23,1.68.95.58,3.09,1.71,3.09,1.71-.23-.47-.52-1.19-.63-2.11-.13-1.1.07-1.92.54-3.76.92-3.6.9-3.37.98-3.83.45-2.59.14-4.56.2-4.57.05,0,.31,1.47.2,3.42-.09,1.51-.38,2.99-.83,5.25-.22,1.09-.3,1.41-.29,2.01.02,1.27.43,2.37.73,3.16.22.59.44,1.06.59,1.36,0,0,1.89,1.63,1.94,2.07,0,0,.84-3.96,2.03-5.11,0,0,1.44-2.21,1.45-2.82s.61-1.58.46-3.52c0,0,.11,2.72-.05,3.38-.16.65-1.06,2.54-1.44,3.24-.38.7-.69,1.4-.69,1.4,0,0,.52-.68,2.4-.9,0,0,1.88-.08,2.27-.34,0,0,1.44-.62,1.4-1,0,0-.59.99-1.49,1.21,0,0-1.05.29-1.96.41s-1.88.5-2.42,1.11-.94,1.77-1.05,3.04-.14,1.49-.14,1.49c0,0,.55,1.83.53,2.86s0,4.44,0,4.44c0,0,6.7.22,8.33,1.39,0,0-10.49-1.3-18.89.04"/>
          <path class="cls-4" d="m54.81,36.12c-17.08-14.35-54.81,0-54.81,0h54.81Z"/>
        </g>
        <path class="cls-1" d="m30.23,29.22s-.56-.32-.07-1.25c0,0-.71.62-.66.96s-.53-.19-.34-.52c0,0-.69.55-.59.74,0,0-.48-.15-.06-.7,0,0-.66.33-.6.61,0,0-.93.53.06.67s2.27-.5,2.27-.5Z"/>
        <path class="cls-1" d="m20.33,4.58s-.49.05-.51-.66.57-.42.48-1.29l.17.48s.17-.82.04-1.53c0,0,.6,1.08.62,1.54,0,0,.52-.78.21-1.52,0,0,.69.89.53,1.5s.5,1.68-1.55,1.48Z"/>
        <path class="cls-1" d="m29.78,4.8s-.36-.02-.68-.66c-.13-.26-.23-.61-.23-1.71l.38.93s.29-.49.17-1.21c0,0,.48.76.49,1.21,0,0,.21-.26-.06-1.3,0,0,.5.68.46,1.42-.04.62,0,1.43-.53,1.32Z"/>
        <path class="cls-1" d="m35.53,10.82s-.33,0-.17-.69c.08-.34.15-.52.06-1.38l.25.62s.24-.42.12-1.14c0,0,.53.69.55,1.14,0,0,.22-.56-.08-1.3,0,0,.36.7.49,1.32s-.39,1.58-1.21,1.43Z"/>
        <path class="cls-1" d="m39.09,15.71s-.49.05-.51-.66.34-.49.25-1.36l.4.56s.24-.36.12-1.08c0,0,.53.63.54,1.08,0,0,.06-.93-.24-1.66,0,0,.76,1.29.6,1.9s-.21,1.31-1.17,1.22Z"/>
        <path class="cls-1" d="m25.03,15.28s.57-.08.47-1.02c0,0,.38.75.23,1.02s.5.02.46-.32c0,0,.39.68.25.81,0,0,.45.04.29-.56,0,0,.44.5.3.71,0,0,.6.75-.27.54s-1.72-1.17-1.72-1.17Z"/>
      </g>
      <g>
        <g>
          <path class="cls-3" d="m22.76,30.57s.89-.52,2.44-.85c1.77-.38,4.31-.56,5.91-.54,0,0,.35-4.32.29-4.55,0,0,.37-3.9-3.02-5.93-3.43-2.26-4.58-3.15-5.55-4.03,0,0-2.1-2.42-2.11-5.1-.01-2.67.12-6.78.12-6.78l.28,5.65s.26,3.95,2.08,5.4c1.82,1.45,1.28,1.1,2.23,1.68.95.58,3.09,1.71,3.09,1.71-.23-.47-.52-1.19-.63-2.11-.13-1.1.07-1.92.54-3.76.92-3.6.9-3.37.98-3.83.45-2.59.14-4.56.2-4.57.05,0,.31,1.47.2,3.42-.09,1.51-.38,2.99-.83,5.25-.22,1.09-.3,1.41-.29,2.01.02,1.27.43,2.37.73,3.16.22.59.44,1.06.59,1.36,0,0,1.89,1.63,1.94,2.07,0,0,.84-3.96,2.03-5.11,0,0,1.44-2.21,1.45-2.82s.61-1.58.46-3.52c0,0,.11,2.72-.05,3.38-.16.65-1.06,2.54-1.44,3.24-.38.7-.69,1.4-.69,1.4,0,0,.52-.68,2.4-.9,0,0,1.88-.08,2.27-.34,0,0,1.44-.62,1.4-1,0,0-.59.99-1.49,1.21,0,0-1.05.29-1.96.41s-1.88.5-2.42,1.11-.94,1.77-1.05,3.04-.14,1.49-.14,1.49c0,0,.55,1.83.53,2.86s0,4.44,0,4.44c0,0,6.7.22,8.33,1.39,0,0-10.49-1.3-18.89.04"/>
          <path class="cls-4" d="m54.81,36.12c-17.08-14.35-54.81,0-54.81,0h54.81Z"/>
        </g>
        <path class="cls-1" d="m30.23,29.22s-.56-.32-.07-1.25c0,0-.71.62-.66.96s-.53-.19-.34-.52c0,0-.69.55-.59.74,0,0-.48-.15-.06-.7,0,0-.66.33-.6.61,0,0-.93.53.06.67s2.27-.5,2.27-.5Z"/>
        <path class="cls-1" d="m20.33,4.58s-.49.05-.51-.66.57-.42.48-1.29l.17.48s.17-.82.04-1.53c0,0,.6,1.08.62,1.54,0,0,.52-.78.21-1.52,0,0,.69.89.53,1.5s.5,1.68-1.55,1.48Z"/>
        <path class="cls-1" d="m29.78,4.8s-.36-.02-.68-.66c-.13-.26-.23-.61-.23-1.71l.38.93s.29-.49.17-1.21c0,0,.48.76.49,1.21,0,0,.21-.26-.06-1.3,0,0,.5.68.46,1.42-.04.62,0,1.43-.53,1.32Z"/>
        <path class="cls-1" d="m35.53,10.82s-.33,0-.17-.69c.08-.34.15-.52.06-1.38l.25.62s.24-.42.12-1.14c0,0,.53.69.55,1.14,0,0,.22-.56-.08-1.3,0,0,.36.7.49,1.32s-.39,1.58-1.21,1.43Z"/>
        <path class="cls-1" d="m39.09,15.71s-.49.05-.51-.66.34-.49.25-1.36l.4.56s.24-.36.12-1.08c0,0,.53.63.54,1.08,0,0,.06-.93-.24-1.66,0,0,.76,1.29.6,1.9s-.21,1.31-1.17,1.22Z"/>
        <path class="cls-1" d="m25.03,15.28s.57-.08.47-1.02c0,0,.38.75.23,1.02s.5.02.46-.32c0,0,.39.68.25.81,0,0,.45.04.29-.56,0,0,.44.5.3.71,0,0,.6.75-.27.54s-1.72-1.17-1.72-1.17Z"/>
      </g>
    </g>
  </g>
</svg>